<svg width="100" height="63" viewBox="0 0 100 63" fill="none" xmlns="http://www.w3.org/2000/svg">
<path fill-rule="evenodd" clip-rule="evenodd" d="M63.8994 10.4292H90.3811V2.84223H63.8994V10.4292ZM70.1729 26.9837C68.4854 28.7006 67.4213 31.0266 66.9862 33.9616H87.5823C87.3648 30.8294 86.2948 28.4628 84.4015 26.8329C82.4848 25.2145 80.127 24.4083 77.3048 24.4083C74.2474 24.4083 71.8603 25.2668 70.1729 26.9837ZM88.0468 16.7981C91.2395 18.2018 93.8677 20.4292 95.9373 23.4686C97.8246 26.1484 99.0358 29.2575 99.5884 32.79C99.9118 34.8549 100.041 37.8479 99.9883 41.74H66.6922C66.8921 46.2586 68.4678 49.4314 71.4781 51.247C73.3008 52.3781 75.4939 52.9465 78.0691 52.9465C80.7796 52.9465 82.9963 52.2563 84.6955 50.8816C85.6304 50.1333 86.4535 49.1008 87.159 47.7783H99.3592C99.0358 50.4465 97.5541 53.1669 94.9318 55.928C90.8397 60.3073 85.1071 62.4999 77.7399 62.4999C71.6546 62.4999 66.2865 60.6553 61.6475 56.9546C56.985 53.2598 54.6684 47.2389 54.6684 38.9094C54.6684 31.0962 56.7675 25.1044 60.9596 20.9338C65.1635 16.7749 70.6021 14.681 77.299 14.681C81.2794 14.681 84.8601 15.3886 88.0468 16.7981ZM12.3178 34.1241V50.3827H27.3225C30.0036 50.3827 32.0967 50.0231 33.5843 49.3096C36.2948 47.9755 37.647 45.4465 37.647 41.6994C37.647 38.5208 36.3418 36.3456 33.7136 35.1565C32.2437 34.4953 30.18 34.1473 27.5342 34.1241H12.3178ZM12.3178 10.5858V24.0371H27.346C30.0212 24.0371 32.2025 23.5324 33.8841 22.5232C35.5539 21.5139 36.3947 19.7273 36.3947 17.1751C36.3947 14.3271 35.2893 12.4536 33.0786 11.5371C31.1618 10.9049 28.7277 10.5858 25.7703 10.5858H12.3178ZM45.8784 6.49651C47.7657 9.08931 48.7124 12.1868 48.7124 15.8004C48.7124 19.5185 47.7658 22.5173 45.855 24.7795C44.7849 26.044 43.215 27.2041 41.1395 28.2482C44.291 29.3851 46.6663 31.1774 48.2832 33.631C49.8824 36.0788 50.6879 39.0603 50.6879 42.5637C50.6879 46.1774 49.7707 49.4199 47.9304 52.2853C46.7663 54.182 45.3081 55.7829 43.556 57.0822C41.5863 58.573 39.2639 59.588 36.5769 60.1449C33.8899 60.6959 30.9854 60.9627 27.8457 60.9627H0V0H29.8624C37.4 0.110208 42.7328 2.27378 45.8784 6.49651Z" fill="#1769FF"/>
</svg>
