<svg width="84" height="63" viewBox="0 0 84 63" fill="none" xmlns="http://www.w3.org/2000/svg">
<path d="M10.4167 7.8125C8.98438 7.8125 7.8125 8.98438 7.8125 10.4167V14.0137L35.8887 37.0606C39.2578 39.8275 44.0918 39.8275 47.4609 37.0606L75.5208 14.0137V10.4167C75.5208 8.98438 74.349 7.8125 72.9167 7.8125H10.4167ZM7.8125 24.1211V52.0833C7.8125 53.5156 8.98438 54.6875 10.4167 54.6875H72.9167C74.349 54.6875 75.5208 53.5156 75.5208 52.0833V24.1211L52.4089 43.099C46.1589 48.2259 37.1582 48.2259 30.9245 43.099L7.8125 24.1211ZM0 10.4167C0 4.67122 4.67122 0 10.4167 0H72.9167C78.6621 0 83.3333 4.67122 83.3333 10.4167V52.0833C83.3333 57.8288 78.6621 62.5 72.9167 62.5H10.4167C4.67122 62.5 0 57.8288 0 52.0833V10.4167Z" fill="black"/>
</svg>
