<svg width="72" height="70" viewBox="0 0 72 70" fill="none" xmlns="http://www.w3.org/2000/svg">
<path d="M35.8572 0.00239337C16.054 0.00239337 0 16.0707 0 35.8916C0 51.6512 10.1503 65.0415 24.2651 69.8639L24.5186 69.9381C26.3119 70.2755 26.9694 69.1675 26.9694 68.2126C26.9694 67.3605 26.9408 65.1013 26.924 62.1121C16.9507 64.278 14.8465 57.2969 14.8465 57.2969C14.1578 55.0832 12.7471 53.2643 10.8939 52.07L10.8557 52.0485C7.60854 49.8228 11.1068 49.8683 11.1068 49.8683C13.4668 50.2009 15.4442 51.5866 16.58 53.5299L16.5992 53.5658C17.9238 55.9471 20.425 57.5315 23.2967 57.5315C24.674 57.5315 25.9652 57.1677 27.0794 56.5287L27.0412 56.5478C27.2133 54.6548 28.0478 52.9843 29.3104 51.7494L29.3127 51.747C21.3503 50.8495 12.979 47.7622 12.979 34.0129C12.979 33.9483 12.9766 33.8741 12.9766 33.7999C12.9766 30.1598 14.3802 26.8475 16.6757 24.3753L16.6685 24.3849C16.1831 23.0877 15.901 21.5896 15.901 20.0268C15.901 18.1672 16.2979 16.3986 17.0128 14.8047L16.9793 14.886C16.9793 14.886 19.9826 13.924 26.8403 18.5645C29.5279 17.7962 32.6149 17.3535 35.8046 17.3535C38.9944 17.3535 42.0813 17.7962 45.0081 18.6219L44.7689 18.5645C51.5812 13.924 54.5845 14.886 54.5845 14.886C55.266 16.4225 55.6629 18.2127 55.6629 20.0962C55.6629 21.6326 55.3999 23.1069 54.9145 24.4758L54.9432 24.3849C57.2219 26.8547 58.6207 30.167 58.6207 33.8071C58.6207 33.8813 58.6207 33.9531 58.6183 34.0249V34.0129C58.6183 47.8005 50.2374 50.8351 42.2583 51.7182C43.7695 53.2667 44.702 55.3847 44.702 57.7229C44.702 57.9455 44.6924 58.1681 44.6757 58.3882L44.6781 58.3595C44.6781 63.1628 44.6327 67.0207 44.6327 68.1862C44.6327 69.1292 45.2591 70.2492 47.0979 69.8902C61.5116 65.0343 71.7073 51.6321 71.7073 35.8438C71.7073 16.0468 55.6725 0 35.8955 0C35.8812 0 35.8644 0 35.8501 0H35.8525L35.8572 0.00239337Z" fill="black"/>
</svg>
