<svg width="70" height="70" viewBox="0 0 70 70" fill="none" xmlns="http://www.w3.org/2000/svg">
<path d="M35.0001 6.30644C44.3455 6.30644 45.4527 6.34202 49.1431 6.51032C52.5556 6.66607 54.4089 7.23628 55.6424 7.71549C57.276 8.35045 58.4418 9.10879 59.6665 10.3335C60.8915 11.5585 61.6498 12.7243 62.2848 14.3579C62.764 15.5914 63.3342 17.4447 63.49 20.8569C63.6583 24.5476 63.6939 25.6545 63.6939 34.9999C63.6939 44.3455 63.6583 45.4524 63.49 49.1431C63.3342 52.5556 62.764 54.4086 62.2848 55.6421C61.6498 57.2757 60.8915 58.4418 59.6668 59.6665C58.4418 60.8912 57.276 61.6495 55.6424 62.2845C54.4089 62.764 52.5556 63.3339 49.1431 63.4897C45.4532 63.658 44.3464 63.6938 35.0001 63.6938C25.6539 63.6938 24.5474 63.658 20.8572 63.4897C17.4447 63.3339 15.5914 62.764 14.3579 62.2845C12.7243 61.6495 11.5585 60.8912 10.3338 59.6665C9.10908 58.4418 8.35045 57.2757 7.71549 55.6421C7.23628 54.4086 6.66607 52.5556 6.51032 49.1431C6.34203 45.4524 6.30644 44.3455 6.30644 34.9999C6.30644 25.6545 6.34203 24.5476 6.51032 20.8569C6.66607 17.4447 7.23628 15.5914 7.71549 14.3579C8.35045 12.7243 9.10879 11.5585 10.3338 10.3338C11.5585 9.10879 12.7243 8.35045 14.3579 7.71549C15.5914 7.23628 17.4447 6.66607 20.8572 6.51032C24.5476 6.34202 25.6548 6.30644 35.0001 6.30644ZM35.0001 0C25.4947 0 24.3026 0.0402496 20.5696 0.210584C16.8444 0.380626 14.2999 0.972129 12.0736 1.83751C9.77204 2.73176 7.8202 3.92847 5.87448 5.87448C3.92848 7.8202 2.73176 9.77204 1.83751 12.0736C0.972129 14.2999 0.380626 16.8441 0.210584 20.5696C0.0402496 24.3026 0 25.4947 0 34.9999C0 44.5056 0.0402496 45.6974 0.210584 49.4304C0.380626 53.1559 0.972129 55.7001 1.83751 57.9264C2.73176 60.228 3.92848 62.1798 5.87448 64.1258C7.8202 66.0715 9.77204 67.2682 12.0736 68.1625C14.2999 69.0279 16.8444 69.6194 20.5696 69.7894C24.3026 69.9597 25.4947 70 35.0001 70C44.5056 70 45.6977 69.9597 49.4307 69.7894C53.1559 69.6194 55.7004 69.0279 57.9267 68.1625C60.2283 67.2682 62.1801 66.0715 64.1258 64.1258C66.0715 62.1798 67.2685 60.228 68.1628 57.9264C69.0282 55.7001 69.6197 53.1559 69.7897 49.4304C69.96 45.6974 70.0003 44.5056 70.0003 34.9999C70.0003 25.4947 69.96 24.3026 69.7897 20.5696C69.6197 16.8441 69.0282 14.2999 68.1628 12.0736C67.2685 9.77204 66.0715 7.8202 64.1258 5.87448C62.1801 3.92847 60.2283 2.73176 57.9267 1.83751C55.7004 0.972129 53.1559 0.380626 49.4307 0.210584C45.6977 0.0402496 44.5056 0 35.0001 0Z" fill="#C13584"/>
<path d="M35.0174 17.043C25.091 17.043 17.0445 25.0895 17.0445 35.0158C17.0445 44.9422 25.091 52.9887 35.0174 52.9887C44.9437 52.9887 52.9905 44.9422 52.9905 35.0158C52.9905 25.0895 44.9437 17.043 35.0174 17.043ZM35.0174 46.6826C28.5741 46.6826 23.3506 41.4591 23.3506 35.0158C23.3506 28.5726 28.5741 23.3491 35.0174 23.3491C41.4609 23.3491 46.6841 28.5726 46.6841 35.0158C46.6841 41.4591 41.4609 46.6826 35.0174 46.6826Z" fill="#C13584"/>
<path d="M57.8981 16.3226C57.8981 18.642 56.0177 20.5226 53.6981 20.5226C51.3785 20.5226 49.4981 18.642 49.4981 16.3226C49.4981 14.003 51.3785 12.1223 53.6981 12.1223C56.0177 12.1223 57.8981 14.003 57.8981 16.3226Z" fill="#C13584"/>
</svg>
