<svg width="77" height="70" viewBox="0 0 77 70" fill="none" xmlns="http://www.w3.org/2000/svg">
<path fill-rule="evenodd" clip-rule="evenodd" d="M77 70H59.9819V45.3922C59.9819 38.9511 57.32 34.554 51.4662 34.554C46.9887 34.554 44.4986 37.5213 43.3396 40.381C42.905 41.4075 42.9729 42.8373 42.9729 44.2671V70H26.1134C26.1134 70 26.3307 26.4097 26.1134 22.4473H42.9729V29.9104C43.969 26.6473 49.3564 21.9901 57.9537 21.9901C68.62 21.9901 77 28.8301 77 43.559V70ZM9.0636 16.4993H8.95497C3.52223 16.4993 0 12.8642 0 8.25637C0 3.55892 3.62635 0 9.16774 0C14.7046 0 18.1091 3.55 18.2178 8.24297C18.2178 12.8508 14.7046 16.4993 9.0636 16.4993ZM1.94215 22.4473H16.9501V70H1.94215V22.4473Z" fill="#007EBB"/>
</svg>
