<svg width="86" height="70" viewBox="0 0 86 70" fill="none" xmlns="http://www.w3.org/2000/svg">
<path d="M26.7482 70C16.9027 70 7.72487 67.1364 0 62.1953C6.55867 62.6199 18.1333 61.6033 25.3327 54.7363C14.5024 54.2393 9.61818 45.9331 8.98112 42.3835C9.90132 42.7383 14.29 43.1644 16.7676 42.1704C4.30926 39.0466 2.39805 28.1135 2.82277 24.777C5.1587 26.4098 9.12267 26.9777 10.68 26.8356C-0.9289 18.5293 3.24748 6.03449 5.30025 3.33672C13.6312 14.8786 26.1167 21.361 41.563 21.7213C41.2717 20.4443 41.118 19.1143 41.118 17.7483C41.118 7.94628 49.0408 0 58.8143 0C63.9207 0 68.5221 2.16924 71.7521 5.63908C75.1645 4.83947 80.3 2.9676 82.8106 1.34887C81.5451 5.89251 77.6053 9.68279 75.2223 11.0876C75.2421 11.1354 75.2028 11.0396 75.2223 11.0876C77.3156 10.771 82.9798 9.68243 85.2174 8.16431C84.1108 10.7168 79.9339 14.9609 76.506 17.3369C77.144 45.4638 55.6241 70 26.7482 70Z" fill="#47ACDF"/>
</svg>
