<svg width="128" height="28" viewBox="0 0 128 28" fill="none" xmlns="http://www.w3.org/2000/svg">
<path d="M1.6565 27.879C1.36022 27.879 1.0774 27.7848 0.808051 27.5965C0.538701 27.4352 0.430961 27.2065 0.484831 26.9107C0.888856 24.7589 1.22554 22.5802 1.49489 20.3746C1.79118 18.1422 1.93932 15.8963 1.93932 13.6369C1.93932 11.6465 1.87199 9.84438 1.73731 8.23055C1.60263 6.61671 1.17167 5.07012 0.444428 3.59078C0.309753 3.29491 0.202013 3.03938 0.121208 2.82421C0.0404026 2.60903 0 2.4073 0 2.21902C0 1.70797 0.296285 1.21037 0.888856 0.726223C1.48143 0.242074 2.1144 0 2.78778 0C3.75744 0 4.41735 0.591738 4.7675 1.77521C5.11766 2.95869 5.29273 4.70701 5.29273 7.02017C5.29273 9.79059 5.13112 12.2113 4.8079 14.2824C4.48468 16.3266 4.20187 17.8866 3.95945 18.9625L4.12106 19.0432C4.65976 17.7253 5.3466 16.4611 6.18159 15.2507C7.01658 14.0134 7.97277 12.9914 9.05017 12.1844C10.1545 11.3775 11.3531 10.9741 12.646 10.9741C13.9119 10.9741 14.8816 11.3506 15.555 12.1037C16.2553 12.8569 16.6054 13.7579 16.6054 14.8069C16.6054 16.0442 16.161 17.147 15.2722 18.1153C14.3833 19.0836 13.2251 19.8905 11.7975 20.536C12.1477 21.4505 12.646 22.1768 13.2924 22.7147C13.9389 23.2257 14.7604 23.4813 15.757 23.4813C16.0802 23.4813 16.3496 23.4544 16.565 23.4006C16.9152 23.3199 17.0903 23.6561 17.0903 24.4092C17.0903 24.8396 17.0095 25.3237 16.8479 25.8617C16.6863 26.3996 16.363 26.8703 15.8782 27.2738C15.4203 27.6503 14.72 27.8386 13.7773 27.8386C12.5113 27.8386 11.4743 27.4755 10.6663 26.7493C9.88516 25.9962 9.26565 25.0817 8.80776 24.0058C8.3768 22.903 8.04011 21.8136 7.79769 20.7378C7.58221 19.7426 7.9189 19.2181 8.80776 19.1643C9.75048 19.0567 10.5451 18.7743 11.1915 18.317C11.8379 17.8597 12.1612 17.2546 12.1612 16.5014C12.1612 15.6407 11.7437 15.2104 10.9087 15.2104C10.37 15.2104 9.81782 15.4121 9.25218 15.8156C8.71348 16.1921 8.20172 16.6494 7.71689 17.1873C7.25899 17.7253 6.8819 18.2498 6.58562 18.7608C6.18159 19.4601 5.83144 20.146 5.53515 20.8184C5.23886 21.4909 4.99645 22.1633 4.8079 22.8357V24.4496C4.8079 25.4448 4.51162 26.2651 3.91905 26.9107C3.35341 27.5562 2.59923 27.879 1.6565 27.879Z" fill="#444444"/>
<path d="M23.7163 7.38329C22.9621 7.35639 22.3561 7.12776 21.8982 6.69741C21.4403 6.26705 21.2113 5.66186 21.2113 4.88184C21.2383 4.04803 21.5211 3.3756 22.0598 2.86455C22.5985 2.32661 23.2853 2.07109 24.1203 2.09798C24.9014 2.12488 25.5075 2.35351 25.9384 2.78386C26.3963 3.21422 26.6118 3.8194 26.5849 4.59942C26.5579 5.40634 26.2886 6.07877 25.7768 6.61671C25.2651 7.12776 24.5782 7.38329 23.7163 7.38329ZM23.7567 27.8386C22.9486 27.8386 22.3157 27.6234 21.8578 27.1931C21.3999 26.7358 21.1709 25.9693 21.1709 24.8934C21.1709 24.2747 21.2248 23.6695 21.3325 23.0778C21.4672 22.4861 21.6154 21.9078 21.777 21.3429C21.9655 20.7512 22.1137 20.146 22.2214 19.5274C22.3561 18.9087 22.4234 18.2498 22.4234 17.5504C22.4234 17.0663 22.3561 16.609 22.2214 16.1787C22.0867 15.7214 21.7904 15.3852 21.3325 15.17C20.9824 14.9817 20.6726 14.7935 20.4033 14.6052C20.1609 14.39 20.0397 14.121 20.0397 13.7983C20.0397 13.4217 20.2147 13.0183 20.5649 12.5879C20.9151 12.1575 21.373 11.7944 21.9386 11.4986C22.5312 11.1758 23.1372 11.0144 23.7567 11.0144C24.4301 11.0144 24.9149 11.1892 25.2112 11.5389C25.5344 11.8886 25.7499 12.3324 25.8576 12.8703C25.9654 13.4083 26.0192 13.9597 26.0192 14.5245C26.0192 15.3852 25.9519 16.2325 25.8172 17.0663C25.6826 17.8732 25.5479 18.6263 25.4132 19.3256C25.3055 19.8367 25.2247 20.3074 25.1708 20.7378C25.1169 21.1681 25.09 21.5716 25.09 21.9481C25.09 22.6206 25.2516 23.1316 25.5748 23.4813C25.898 23.804 26.3559 24.1134 26.9485 24.4092C27.1909 24.5437 27.3121 24.7454 27.3121 25.0144C27.3121 25.2296 27.2044 25.5658 26.9889 26.0231C26.7734 26.4803 26.3963 26.8972 25.8576 27.2738C25.3459 27.6503 24.6456 27.8386 23.7567 27.8386Z" fill="#444444"/>
<path d="M32.7684 27.879C32.3374 27.879 31.9872 27.7983 31.7179 27.6369C31.4755 27.5024 31.3947 27.2603 31.4755 26.9107C31.7718 25.7541 32.0142 24.5841 32.2027 23.4006C32.4182 22.1902 32.5259 21.0336 32.5259 19.9308C32.5259 18.5053 32.4317 17.4697 32.2431 16.8242C32.0815 16.1518 31.8526 15.6945 31.5563 15.4524C31.26 15.1835 30.8964 14.9817 30.4654 14.8473C30.2769 14.7666 30.1018 14.659 29.9402 14.5245C29.8055 14.39 29.7382 14.2017 29.7382 13.9597C29.7382 13.5831 29.8863 13.1662 30.1826 12.7089C30.4789 12.2517 30.8964 11.8617 31.4351 11.5389C31.9738 11.1892 32.5933 11.0144 33.2936 11.0144C34.2094 11.0144 34.8424 11.3372 35.1925 11.9827C35.5696 12.6013 35.7582 13.4217 35.7582 14.4438C36.243 13.3679 36.8356 12.5207 37.5359 11.902C38.2631 11.2565 39.1654 10.9337 40.2428 10.9337C40.9701 10.9337 41.5761 11.0951 42.0609 11.4179C42.5458 11.7406 42.7882 12.2651 42.7882 12.9914C42.7882 13.7176 42.5458 14.4035 42.0609 15.049C41.6031 15.6676 41.1317 15.9769 40.6469 15.9769C40.5661 15.9769 40.4718 15.9635 40.364 15.9366C40.2563 15.9097 40.162 15.8425 40.0812 15.7349C39.7311 15.3045 39.3001 15.0893 38.7883 15.0893C38.0072 15.0893 37.3204 15.6004 36.7278 16.6225C36.1352 17.6446 35.812 19.0567 35.7582 20.8588C35.7851 21.5312 35.7986 22.2171 35.7986 22.9164C35.8255 23.6158 35.839 24.1268 35.839 24.4496C35.839 25.4448 35.5561 26.2651 34.9905 26.9107C34.4518 27.5562 33.7111 27.879 32.7684 27.879Z" fill="#444444"/>
<path d="M50.1623 28C49.4081 28 48.7617 27.7848 48.223 27.3545C47.7112 26.8972 47.4149 26.0634 47.3341 24.853C47.2802 23.9385 47.159 22.9164 46.9705 21.7867C46.8089 20.6571 46.6069 19.5946 46.3645 18.5994C46.122 17.6042 45.8392 16.8511 45.516 16.3401C45.3275 16.0442 45.112 15.829 44.8696 15.6945C44.6541 15.5331 44.3174 15.4256 43.8595 15.3718C43.3747 15.3449 43.1322 14.9952 43.1322 14.3228C43.1322 13.22 43.4285 12.4131 44.0211 11.902C44.6137 11.3641 45.2871 11.0951 46.0412 11.0951C46.8493 11.0951 47.5092 11.3641 48.021 11.902C48.5327 12.4131 48.9233 13.1124 49.1926 14C49.4889 14.8607 49.6909 15.829 49.7987 16.9049C49.9333 17.9808 50.0007 19.0701 50.0007 20.1729C50.0007 20.5764 49.9872 20.9798 49.9603 21.3833C49.9603 21.7598 49.9603 22.1364 49.9603 22.513C49.9603 22.7819 50.0142 23.0106 50.1219 23.1988C50.2296 23.3602 50.499 23.4409 50.9299 23.4409C51.5225 23.4409 52.2228 23.293 53.0309 22.9971C53.8389 22.6744 54.5392 22.1499 55.1318 21.4236C55.7513 20.6974 56.0611 19.7291 56.0611 18.5187C56.0611 17.9001 55.9668 17.389 55.7783 16.9856C55.5897 16.5552 55.3338 16.1518 55.0106 15.7752C54.9029 15.6407 54.8086 15.5062 54.7278 15.3718C54.647 15.2373 54.6066 15.0759 54.6066 14.8876C54.6066 14.3766 54.8086 13.9731 55.2126 13.6772C55.6436 13.3545 56.1149 13.1258 56.6267 12.9914C57.1654 12.83 57.6098 12.7493 57.96 12.7493C58.3101 12.7493 58.5795 12.8434 58.768 13.0317C58.9835 13.1931 59.1451 13.5293 59.2529 14.0403C59.3606 14.39 59.4414 14.78 59.4953 15.2104C59.5492 15.6138 59.5761 16.0845 59.5761 16.6225C59.5761 17.4563 59.5357 18.1287 59.4549 18.6398C59.401 19.1508 59.3337 19.6081 59.2529 20.0115C59.1721 20.3612 59.1047 20.7109 59.0509 21.0605C59.0239 21.3833 59.0105 21.7733 59.0105 22.2305C59.0105 22.7147 59.1047 23.0375 59.2933 23.1988C59.4818 23.3602 59.7781 23.4409 60.1821 23.4409C61.7174 23.4409 62.9699 22.9164 63.9396 21.8674C64.9092 20.7915 65.3941 19.487 65.3941 17.9539C65.3941 17.4159 65.3132 16.9183 65.1516 16.4611C64.99 15.9769 64.7072 15.5197 64.3032 15.0893C64.0877 14.8204 63.9126 14.6052 63.778 14.4438C63.6433 14.2555 63.5759 14.0269 63.5759 13.7579C63.5759 13.2738 63.7914 12.83 64.2224 12.4265C64.6803 12.0231 65.2055 11.7003 65.7981 11.4582C66.4176 11.1892 66.9698 11.0548 67.4546 11.0548C68.1818 11.0548 68.6532 11.391 68.8687 12.0634C69.0842 12.7358 69.1919 13.5024 69.1919 14.3631C69.1919 15.8156 68.9764 17.3353 68.5455 18.9222C68.1414 20.4822 67.5489 21.9616 66.7677 23.3602C65.9866 24.732 65.0304 25.8482 63.8992 26.7089C62.7679 27.5696 61.4885 28 60.0609 28C58.6064 28 57.6098 27.5831 57.0711 26.7493C56.5324 25.9155 56.3035 24.9068 56.3843 23.7233C55.5762 24.9606 54.62 25.9827 53.5157 26.7896C52.4383 27.5965 51.3205 28 50.1623 28Z" fill="#444444"/>
<path d="M76.5852 27.9597C74.9691 27.9597 73.6628 27.4621 72.6662 26.4669C71.6965 25.4448 71.2117 23.9923 71.2117 22.1095C71.2117 20.7646 71.4676 19.4332 71.9794 18.1153C72.5181 16.7704 73.2857 15.56 74.2823 14.4842C75.2789 13.4083 76.4775 12.5475 77.8781 11.902C79.2788 11.2565 80.8544 10.9337 82.6052 10.9337C84.2213 10.9337 85.595 11.2161 86.7263 11.781C87.8845 12.3189 88.4636 13.0586 88.4636 14C88.4636 14.2421 88.4367 14.5648 88.3828 14.9683C88.3289 15.3449 88.2616 15.6542 88.1808 15.8963C88.1 16.1114 87.9788 16.3132 87.8172 16.5014C87.6825 16.6628 87.4939 16.7435 87.2515 16.7435C87.1438 16.7435 86.9418 16.7032 86.6455 16.6225C86.5377 17.1873 86.4569 17.7387 86.4031 18.2767C86.3492 18.8146 86.3223 19.3525 86.3223 19.8905C86.3223 20.9126 86.4704 21.8271 86.7667 22.634C87.0899 23.414 87.7094 23.8982 88.6252 24.0865C88.8676 24.1403 89.0562 24.2209 89.1908 24.3285C89.3525 24.4361 89.4333 24.6647 89.4333 25.0144C89.4333 25.3103 89.3525 25.6868 89.1908 26.1441C89.0562 26.6013 88.7734 27.0183 88.3424 27.3948C87.9384 27.7445 87.3458 27.9193 86.5647 27.9193C85.5142 27.9193 84.7062 27.5427 84.1405 26.7896C83.5749 26.0096 83.2921 24.9068 83.2921 23.4813C82.5648 24.7992 81.6356 25.8751 80.5043 26.7089C79.4 27.5427 78.0936 27.9597 76.5852 27.9597ZM77.8781 23.7637C78.9555 23.7637 79.8983 23.4275 80.7063 22.755C81.5413 22.0826 82.1877 21.2354 82.6456 20.2133C82.9419 19.5677 83.1709 18.8684 83.3325 18.1153C83.4941 17.3353 83.6018 16.5687 83.6557 15.8156C83.1978 15.6004 82.6726 15.4256 82.08 15.2911C81.4874 15.1566 80.8679 15.0893 80.2215 15.0893C78.5784 15.0893 77.2182 15.5735 76.1408 16.5418C75.0903 17.5101 74.5651 18.7205 74.5651 20.1729C74.5651 21.2488 74.8614 22.123 75.454 22.7954C76.0465 23.4409 76.8546 23.7637 77.8781 23.7637Z" fill="#444444"/>
<path d="M93.4697 27.879C93.1734 27.879 92.8906 27.7848 92.6213 27.5965C92.3519 27.4352 92.2442 27.2065 92.2981 26.9107C92.7021 24.7589 93.0388 22.5802 93.3081 20.3746C93.6044 18.1422 93.7525 15.8963 93.7525 13.6369C93.7525 11.6465 93.6852 9.84438 93.5505 8.23055C93.4159 6.61671 92.9849 5.07012 92.2576 3.59078C92.123 3.29491 92.0152 3.03938 91.9344 2.82421C91.8536 2.60903 91.8132 2.4073 91.8132 2.21902C91.8132 1.70797 92.1095 1.21037 92.7021 0.726223C93.2946 0.242074 93.9276 0 94.601 0C95.5707 0 96.2306 0.591738 96.5807 1.77521C96.9309 2.95869 97.1059 4.70701 97.1059 7.02017C97.1059 9.79059 96.9443 12.2113 96.6211 14.2824C96.2979 16.3266 96.0151 17.8866 95.7727 18.9625L95.9343 19.0432C96.473 17.7253 97.1598 16.4611 97.9948 15.2507C98.8298 14.0134 99.786 12.9914 100.863 12.1844C101.968 11.3775 103.166 10.9741 104.459 10.9741C105.725 10.9741 106.695 11.3506 107.368 12.1037C108.069 12.8569 108.419 13.7579 108.419 14.8069C108.419 16.0442 107.974 17.147 107.085 18.1153C106.197 19.0836 105.038 19.8905 103.611 20.536C103.961 21.4505 104.459 22.1768 105.106 22.7147C105.752 23.2257 106.574 23.4813 107.57 23.4813C107.893 23.4813 108.163 23.4544 108.378 23.4006C108.728 23.3199 108.903 23.6561 108.903 24.4092C108.903 24.8396 108.823 25.3237 108.661 25.8617C108.499 26.3996 108.176 26.8703 107.691 27.2738C107.234 27.6503 106.533 27.8386 105.59 27.8386C104.325 27.8386 103.288 27.4755 102.479 26.7493C101.698 25.9962 101.079 25.0817 100.621 24.0058C100.19 22.903 99.8533 21.8136 99.6109 20.7378C99.3954 19.7426 99.7321 19.2181 100.621 19.1643C101.564 19.0567 102.358 18.7743 103.005 18.317C103.651 17.8597 103.974 17.2546 103.974 16.5014C103.974 15.6407 103.557 15.2104 102.722 15.2104C102.183 15.2104 101.631 15.4121 101.065 15.8156C100.527 16.1921 100.015 16.6494 99.5301 17.1873C99.0722 17.7253 98.6951 18.2498 98.3988 18.7608C97.9948 19.4601 97.6447 20.146 97.3484 20.8184C97.0521 21.4909 96.8097 22.1633 96.6211 22.8357V24.4496C96.6211 25.4448 96.3248 26.2651 95.7323 26.9107C95.1666 27.5562 94.4125 27.879 93.4697 27.879Z" fill="#444444"/>
<path d="M118.519 27.9597C116.661 27.9597 115.166 27.4621 114.035 26.4669C112.93 25.4448 112.378 23.952 112.378 21.9885C112.378 21.074 112.499 20.1864 112.742 19.3256C113.011 18.4649 113.361 17.658 113.792 16.9049C113.361 17.1739 113.038 17.3084 112.823 17.3084C112.499 17.3084 112.27 17.1335 112.136 16.7839C112.028 16.4073 111.974 16.0442 111.974 15.6945C111.974 15.0759 112.095 14.5917 112.338 14.2421C112.607 13.8655 112.863 13.5831 113.105 13.3948C113.671 12.9107 114.56 12.3862 115.772 11.8213C116.984 11.2296 118.439 10.9337 120.135 10.9337C122.452 10.9337 124.243 11.5793 125.509 12.8703C126.802 14.1614 127.448 15.9635 127.448 18.2767C127.448 20.0788 127.071 21.7195 126.317 23.1988C125.563 24.6513 124.512 25.8079 123.166 26.6686C121.846 27.5293 120.297 27.9597 118.519 27.9597ZM119.772 23.8444C121.119 23.8444 122.25 23.4275 123.166 22.5937C124.108 21.733 124.58 20.6033 124.58 19.2046C124.58 17.7522 124.108 16.7166 123.166 16.098C122.223 15.4793 121.132 15.17 119.893 15.17C119.327 15.17 118.816 15.2238 118.358 15.3314C117.9 15.439 117.469 15.5735 117.065 15.7349C116.688 16.2728 116.351 16.878 116.055 17.5504C115.758 18.2229 115.61 18.9625 115.61 19.7695C115.61 21.1143 116.014 22.1364 116.822 22.8357C117.63 23.5082 118.614 23.8444 119.772 23.8444Z" fill="#444444"/>
</svg>
