<svg width="169" height="40" viewBox="0 0 169 40" fill="none" xmlns="http://www.w3.org/2000/svg">
<path d="M7.95208 17.8995C8.37852 17.5089 8.77056 17.3473 9.12822 17.4147C9.48587 17.4685 9.70597 17.7716 9.7885 18.3238C9.73348 18.8894 9.49963 19.5225 9.08695 20.2228C8.68803 20.9097 8.11028 21.8929 7.3537 23.1724C6.59712 24.4519 4.73319 25.7785 1.7619 27.1523C-0.287738 27.4756 -0.549101 26.9436 0.977811 25.5563C2.16082 24.5866 3.16501 23.7919 3.99037 23.1724C4.81572 22.5663 5.53791 21.6707 6.15693 20.4855C6.77595 19.3002 7.37433 18.4383 7.95208 17.8995Z" fill="white"/>
<path d="M15.9168 20.2834C15.3941 20.2161 15.0433 20.142 14.8645 20.0612C14.6856 19.9804 14.5206 19.8524 14.3692 19.6773C14.2179 19.4888 14.1216 19.28 14.0804 19.0511C14.0391 18.8086 14.0253 18.5325 14.0391 18.2228C14.0529 17.913 14.1423 17.2194 14.3073 16.1419C14.4724 15.0644 14.5962 14.2226 14.6787 13.6166C14.7613 12.997 14.8369 12.4381 14.9057 11.9397C14.9883 11.4414 15.0845 10.6468 15.1946 9.55584C15.1671 8.89588 14.9401 8.59285 14.5137 8.64672C14.101 8.70059 13.7846 8.96996 13.5645 9.45482C13.0418 10.4515 12.7529 11.2057 12.6979 11.7175C12.6429 12.2158 12.5741 12.8287 12.4916 13.556C12.409 14.2832 12.3127 14.9769 12.2027 15.6368C12.1064 16.2968 12.017 16.95 11.9344 17.5965C11.8657 18.2295 11.8381 18.775 11.8519 19.2329C11.8657 19.6773 11.9413 20.0747 12.0789 20.4248C12.2302 20.775 12.4296 21.0646 12.6773 21.2936C12.9249 21.509 13.2481 21.6976 13.6471 21.8592C14.046 22.0074 14.8026 22.0815 15.9168 22.0815V20.2834Z" fill="white"/>
<path d="M18.7849 27.0715C18.7161 26.9503 18.7092 26.8156 18.7643 26.6675C18.833 26.5193 18.895 26.3779 18.95 26.2432C19.0188 26.122 19.0669 25.994 19.0944 25.8593C19.1357 25.7381 19.1357 25.6102 19.0944 25.4755C19.0531 25.3408 18.9844 25.2263 18.8881 25.1321C18.8055 25.0512 18.6749 24.9637 18.496 24.8694C18.331 24.7886 18.1384 24.7482 17.9183 24.7482C17.7119 24.7482 17.5125 24.7819 17.3199 24.8492C17.1273 24.9166 16.9622 25.0176 16.8247 25.1523C16.7009 25.2869 16.5839 25.4553 16.4739 25.6573C16.3639 25.8593 16.2951 26.0614 16.2676 26.2634C16.2538 26.4789 16.2538 26.6742 16.2676 26.8493C16.2951 27.0244 16.3707 27.2062 16.4945 27.3947C16.6183 27.5968 16.7559 27.7449 16.9072 27.8392C17.0585 27.9469 17.258 28.048 17.5056 28.1422C17.767 28.2365 18.0283 28.2904 18.2897 28.3039C18.5511 28.3308 18.7299 28.3106 18.8262 28.2433C18.9362 28.1759 19.0188 28.0816 19.0738 27.9604C19.1426 27.8392 19.1632 27.7247 19.1357 27.617C19.1219 27.5227 19.0807 27.4419 19.0119 27.3745C18.9431 27.3072 18.8674 27.2062 18.7849 27.0715ZM23.2418 22.0815V20.2026C22.9392 20.2296 22.5953 20.1555 22.2101 19.9804C21.825 19.8053 21.5636 19.6167 21.426 19.4147C21.3022 19.2127 21.1922 18.9568 21.0959 18.647C20.9996 18.3238 20.9446 17.9601 20.9308 17.5561C20.9308 17.152 20.8552 16.8086 20.7039 16.5257C20.5663 16.2294 20.3187 16.1015 19.961 16.1419C19.6171 16.1688 19.3558 16.3102 19.1769 16.5661C19.0119 16.822 18.8674 17.152 18.7436 17.5561C18.6198 17.9601 18.4891 18.344 18.3516 18.7076C18.214 19.0713 17.9045 19.4282 17.4231 19.7784C16.9554 20.1151 16.4189 20.2632 15.8136 20.2228V22.0815C16.8178 21.9737 17.4918 21.839 17.8357 21.6774C18.1934 21.5158 18.5235 21.3138 18.8262 21.0713C19.1288 20.8154 19.3558 20.5393 19.5071 20.243C19.6584 19.9332 19.796 19.9939 19.9198 20.4248C20.0573 20.8424 20.3668 21.206 20.8483 21.5158C21.3298 21.8256 22.1276 22.0141 23.2418 22.0815Z" fill="white"/>
<path d="M29.0812 9.03057L29.7828 8.90935C31.0208 8.7612 31.5711 9.15852 31.4335 10.1013C31.2684 11.1788 30.9452 11.9667 30.4637 12.465H30.278C30.0442 12.3438 29.9272 12.1687 29.9272 11.9397L30.0098 11.1518C29.9685 10.6804 29.7415 10.4986 29.3288 10.6064L28.7305 10.7478L27.7813 11.1518C26.8597 11.6636 26.3644 12.3303 26.2957 13.1519L26.3988 13.5964C26.8115 14.4583 27.6644 15.0442 28.9574 15.354C29.6727 15.4752 30.4981 15.354 31.4335 14.9903C32.534 14.5189 33.2768 14.2832 33.662 14.2832H34.0128C34.5492 14.2832 34.8175 14.5189 34.8175 14.9903V15.0712C34.8175 15.6907 34.0678 16.2092 32.5684 16.6268C31.0415 16.9904 29.7003 17.9669 28.5448 19.5561C27.3893 21.1319 25.5803 21.967 23.118 22.0613V20.2632C23.7646 20.2228 24.5005 19.9669 25.3259 19.4955C26.1512 19.0241 26.784 18.2497 27.2242 17.1722C25.9999 16.7143 25.1333 16.0813 24.6243 15.2732C24.1291 14.4651 24.0947 13.5021 24.5211 12.3842C25.2777 11.0643 26.5914 10.0138 28.4622 9.23259L29.0812 9.03057ZM27.9051 2.3031C27.8914 2.15495 27.8845 2.02026 27.8845 1.89905C27.8982 1.76436 27.9326 1.63641 27.9876 1.5152C28.0564 1.38051 28.1046 1.25256 28.1321 1.13135C28.1733 0.996662 28.1733 0.861978 28.1321 0.727294C28.0908 0.59261 28.022 0.484863 27.9257 0.404052C27.8432 0.309773 27.7125 0.222229 27.5337 0.141418C27.3686 0.0471394 27.176 0 26.9559 0C26.7496 0 26.5501 0.033671 26.3576 0.101013C26.165 0.168355 25.993 0.269368 25.8417 0.404052C25.7042 0.538736 25.5872 0.707091 25.4909 0.909118C25.3946 1.11114 25.3259 1.31317 25.2846 1.5152C25.2571 1.71722 25.2571 1.91251 25.2846 2.10107C25.3259 2.27616 25.4084 2.46472 25.5322 2.66675C25.656 2.8553 25.7936 3.00346 25.9449 3.1112C26.0962 3.20548 26.2957 3.29976 26.5433 3.39404C26.8046 3.48832 27.0454 3.52872 27.2655 3.51525C27.4993 3.48832 27.6644 3.44118 27.7607 3.37384C27.8707 3.30649 27.9533 3.21222 28.0083 3.091C28.0771 2.96978 28.1183 2.88224 28.1321 2.82837C28.1458 2.76102 28.1183 2.69368 28.0495 2.62634C27.9808 2.559 27.9326 2.45125 27.9051 2.3031Z" fill="white"/>
<path d="M43.8964 18.849C44.7905 19.6437 45.5815 20.1151 46.2693 20.2632V22.0815C45.2926 22.0545 44.3228 21.738 43.3599 21.1319C42.8922 21.2127 42.4933 21.536 42.1632 22.1017C41.8605 22.6269 41.8468 23.866 42.1219 25.8189C41.9293 26.6675 41.6267 27.0042 41.214 26.8291C40.8013 26.6675 40.5124 26.3105 40.3474 25.7583L40.0998 24.4654C39.9072 23.7246 39.804 23.0108 39.7903 22.3239C39.7627 21.637 40.2236 20.7211 41.1727 19.5763C42.0394 18.4989 42.9473 18.2564 43.8964 18.849Z" fill="white"/>
<path d="M53.1198 8.18206C52.9685 6.84869 52.5076 6.46484 51.7373 7.03051C50.967 7.59618 50.6231 8.73426 50.7056 10.4448C50.6506 12.6805 50.4993 14.3304 50.2517 15.3944C50.0041 16.4584 49.7014 17.3675 49.3438 18.1217C48.9999 18.8625 48.5803 19.4012 48.0851 19.738C47.5899 20.0747 46.9502 20.2767 46.1661 20.344V22.0815C47.2666 22.0815 48.1126 21.94 48.7041 21.6572C49.3094 21.3609 49.7977 21.004 50.1691 20.5865C50.5543 20.1689 50.9051 19.6235 51.2215 18.9501C51.5516 18.2632 51.8474 17.5291 52.1087 16.748C52.3701 15.9668 52.6108 14.7883 52.8309 13.2125C53.0648 11.6232 53.1611 9.94642 53.1198 8.18206Z" fill="white"/>
<path d="M49.8184 32.0615C49.1443 30.7012 49.4126 30.3107 50.6231 30.8898C51.9849 32.8562 53.4981 34.1896 55.1625 34.8899C56.8133 35.6037 58.746 35.9202 60.9607 35.8394C63.1891 35.7721 65.624 34.9169 68.2651 33.2737C70.92 31.644 72.9009 29.718 74.2077 27.4958C75.5282 25.2735 76.1129 23.3542 75.9616 21.738C74.8886 21.2397 74.2558 20.6807 74.0632 20.0612C73.8707 19.4282 73.85 18.8625 74.0013 18.3642C74.1664 17.8524 74.5516 17.3271 75.1568 16.7884C75.7621 16.2496 76.4637 16.088 77.2615 16.3035C78.0593 16.519 78.5339 17.6638 78.6852 19.738C79.1392 20.0747 79.7926 20.2632 80.6455 20.3036V22.0613C79.8476 22.0747 79.0773 22.0276 78.3345 21.9198C77.8392 24.6405 76.9245 27.0378 75.5901 29.112C74.2696 31.1861 72.7152 32.937 70.9269 34.3646C69.1386 35.7923 67.3916 36.789 65.6859 37.3546C63.9801 37.9338 62.4119 38.2368 60.9813 38.2638C59.5507 38.2907 58.1476 38.1156 56.772 37.7385C55.3964 37.3748 54.1171 36.7688 52.9341 35.9202C51.7373 35.0852 50.6987 33.799 49.8184 32.0615ZM70.4317 6.66686C71.7522 5.84529 73.286 5.4345 75.033 5.4345C75.4182 5.4345 75.7621 5.45471 76.0647 5.49511C76.3674 5.53552 76.6356 5.59612 76.8695 5.67693H76.8488C77.5779 5.91937 77.9424 6.17527 77.9424 6.44463C77.9424 6.84869 77.4403 7.07091 76.4361 7.11132C75.8997 7.13826 75.3357 7.16519 74.7442 7.19213C74.1664 7.2056 73.5955 7.29988 73.0315 7.47497C72.5088 7.62312 71.8829 7.9733 71.1538 8.5255V8.5053C71.0438 8.55917 70.9406 8.59285 70.8443 8.60631C70.748 8.61978 70.6518 8.62652 70.5555 8.62652C69.8677 8.62652 69.5238 8.35715 69.5238 7.81841C69.5238 7.4413 69.8264 7.05745 70.4317 6.66686Z" fill="white"/>
<path d="M88.1356 8.42449C87.4478 9.08444 87.1108 8.87568 87.1245 7.79821C87.1245 7.60965 87.1727 7.36049 87.269 7.05071C87.3653 6.72747 87.5097 6.43117 87.7023 6.1618C87.8949 5.87896 88.0737 5.65673 88.2388 5.49511C88.4038 5.32002 88.6377 5.1584 88.9403 5.01025C89.2567 4.84863 89.6763 4.75435 90.199 4.72741C90.7355 4.68701 91.1963 4.76782 91.5815 4.96984C91.9666 5.17187 92.2968 5.46817 92.5719 5.85876C92.8608 6.23587 93.0121 6.6938 93.0258 7.23254C93.0533 7.77127 92.9777 8.30327 92.7989 8.82854C92.62 9.34034 92.3587 9.83194 92.0148 10.3033C91.6846 10.7613 91.2238 11.2327 90.6323 11.7175C90.0408 12.2024 89.5868 12.4785 89.2705 12.5458C87.9911 12.667 87.7986 12.2832 88.6927 11.3943C89.1054 11.0441 89.4424 10.7276 89.7038 10.4448C89.9651 10.1619 90.1921 9.89928 90.3847 9.65685C90.591 9.40095 90.7699 9.14505 90.9212 8.88915C91.0862 8.61978 91.21 8.31674 91.2926 7.98003C91.3751 7.64332 91.327 7.36049 91.1481 7.13152C90.9831 6.90256 90.7767 6.74094 90.5291 6.64666C90.2815 6.55238 89.972 6.56585 89.6006 6.68707C89.2292 6.80828 88.9334 7.02378 88.7133 7.33355C88.507 7.64332 88.3144 8.00697 88.1356 8.42449ZM95.4194 20.3642C94.9654 20.2969 94.6559 20.1959 94.4908 20.0612C94.3258 19.913 94.3051 19.5292 94.4289 18.9096C94.5665 18.2766 94.6284 17.7379 94.6146 17.2934C94.6009 16.849 94.5183 16.5392 94.367 16.3641C94.2295 16.1756 94.0506 16.0543 93.8305 16.0005C93.6242 15.9466 93.4247 15.9668 93.2322 16.0611C93.0533 16.1554 92.8951 16.2833 92.7576 16.4449C92.62 16.6065 92.4756 16.9096 92.3243 17.354C92.173 17.785 91.9804 18.2497 91.7465 18.748C91.5127 19.2464 91.2857 19.5494 91.0656 19.6571C90.8593 19.7649 90.6529 19.7312 90.4466 19.5561C90.254 19.381 90.2059 18.9972 90.3021 18.4046C90.3984 17.7985 90.426 17.3877 90.3847 17.1722C90.3572 16.9567 90.2746 16.7614 90.1371 16.5863C90.0133 16.4113 89.8551 16.3102 89.6625 16.2833C89.4837 16.2429 89.2636 16.2968 89.0022 16.4449C88.7546 16.5796 88.5345 16.8557 88.3419 17.2732C88.1493 17.6908 87.943 18.1419 87.7229 18.6268C87.5028 19.1117 87.2965 19.4282 87.1039 19.5763C86.9113 19.7245 86.7118 19.738 86.5055 19.6167C86.3129 19.4821 86.2717 19.0443 86.3817 18.3036C86.4917 17.5493 86.5055 17.0779 86.423 16.8894C86.3404 16.6874 86.2373 16.5392 86.1135 16.4449C86.0034 16.3506 85.8521 16.2833 85.6595 16.2429C85.4807 16.2025 85.2881 16.2496 85.0818 16.3843C84.8754 16.519 84.7172 16.647 84.6072 16.7682C84.5109 16.8894 84.3252 17.3204 84.0501 18.0611C83.7887 18.7884 83.3623 19.3474 82.7708 19.738C82.1793 20.1151 81.4708 20.2969 80.6455 20.2834V22.0613C81.7322 22.0882 82.5713 22.0006 83.1628 21.7986C83.7543 21.5831 84.1807 21.307 84.4421 20.9703C84.7172 20.6336 84.9304 20.6403 85.0818 20.9905C85.2331 21.3407 85.4532 21.6033 85.742 21.7784C86.0447 21.9535 86.3679 22.0411 86.7118 22.0411C87.0557 22.0276 87.3928 21.9064 87.7229 21.6774C88.053 21.4484 88.2938 21.1387 88.4451 20.7481C88.6102 20.344 88.734 20.2632 88.8165 20.5057C88.899 20.7481 89.0435 21.004 89.2498 21.2734C89.4699 21.5427 89.7106 21.7447 89.972 21.8794C90.2334 22.0006 90.5085 22.0545 90.7974 22.0411C91.0862 22.0276 91.3614 21.94 91.6227 21.7784C91.8841 21.6168 92.0973 21.3676 92.2624 21.0309C92.4412 20.6807 92.565 20.4585 92.6338 20.3642C92.7163 20.27 92.7713 20.2902 92.7989 20.4248C92.8401 20.5595 92.9433 20.7885 93.1084 21.1117C93.2872 21.4215 93.5554 21.6639 93.9131 21.839C94.2845 22.0006 94.7866 22.0815 95.4194 22.0815V20.3642Z" fill="white"/>
<path d="M99.5255 8.00024C99.5118 7.85208 99.5049 7.7174 99.5049 7.59618C99.5186 7.4615 99.553 7.33355 99.6081 7.21233C99.6768 7.07765 99.725 6.9497 99.7525 6.82848C99.7938 6.6938 99.7938 6.55912 99.7525 6.42443C99.7112 6.28975 99.6424 6.182 99.5461 6.10119C99.4636 6.00691 99.3329 5.91937 99.1541 5.83856C98.989 5.74428 98.7964 5.69714 98.5764 5.69714C98.37 5.69714 98.1706 5.73081 97.978 5.79815C97.7854 5.86549 97.6134 5.96651 97.4621 6.10119C97.3246 6.23587 97.2076 6.40423 97.1113 6.60625C97.0151 6.80828 96.9463 7.01031 96.905 7.21233C96.8775 7.41436 96.8775 7.60965 96.905 7.79821C96.9463 7.9733 97.0288 8.16186 97.1526 8.36388C97.2764 8.55244 97.414 8.70059 97.5653 8.80834C97.7166 8.90262 97.9161 8.9969 98.1637 9.09118C98.425 9.18546 98.6658 9.22586 98.8859 9.21239C99.1197 9.18546 99.2848 9.13832 99.3811 9.07097C99.4911 9.00363 99.5737 8.90935 99.6287 8.78814C99.6975 8.66692 99.7387 8.57938 99.7525 8.5255C99.7662 8.45816 99.7387 8.39082 99.67 8.32348C99.6012 8.25613 99.553 8.14839 99.5255 8.00024ZM102.806 22.0815V20.2026C102.504 20.2296 102.16 20.1555 101.775 19.9804C101.389 19.8053 101.128 19.6167 100.991 19.4147C100.867 19.2127 100.757 18.9568 100.66 18.647C100.564 18.3238 100.509 17.9601 100.495 17.5561C100.495 17.152 100.42 16.8086 100.268 16.5257C100.131 16.2294 99.8832 16.1015 99.5255 16.1419C99.1816 16.1688 98.9203 16.3102 98.7414 16.5661C98.5764 16.822 98.4319 17.152 98.3081 17.5561C98.1843 17.9601 98.0536 18.344 97.9161 18.7076C97.7785 19.0713 97.469 19.4282 96.9875 19.7784C96.5198 20.1151 95.9834 20.2632 95.3781 20.2228V22.0815C96.3823 21.9737 97.0563 21.839 97.4002 21.6774C97.7579 21.5158 98.088 21.3138 98.3906 21.0713C98.6933 20.8154 98.9203 20.5393 99.0716 20.243C99.2229 19.9332 99.3604 19.9939 99.4842 20.4248C99.6218 20.8424 99.9313 21.206 100.413 21.5158C100.894 21.8256 101.692 22.0141 102.806 22.0815Z" fill="white"/>
<path d="M101.114 28.2231C102.256 27.4823 103.57 27.1119 105.055 27.1119C105.399 27.1119 105.702 27.1254 105.963 27.1523C106.225 27.1927 106.452 27.2533 106.644 27.3341C107.263 27.5362 107.573 27.7651 107.573 28.021C107.573 28.3712 107.133 28.6406 106.252 28.8291C105.798 28.8426 105.317 28.8561 104.808 28.8695C104.299 28.8965 103.804 28.984 103.322 29.1322C102.868 29.2669 102.332 29.5766 101.713 30.0615C101.616 30.1019 101.513 30.1288 101.403 30.1423C101.279 30.1558 101.183 30.1625 101.114 30.1625C100.592 30.0144 100.33 29.7046 100.33 29.2332C100.33 28.8965 100.592 28.5598 101.114 28.2231ZM107.078 14.8287C107.71 15.3944 107.875 16.3035 107.573 17.5561C106.706 20.4518 104.973 21.9468 102.373 22.0411V20.243C104.505 20.3642 105.544 19.0376 105.489 16.2631C105.447 14.9836 105.977 14.5055 107.078 14.8287Z" fill="white"/>
<path d="M120.737 8.04064C120.586 6.70727 120.125 6.32342 119.355 6.88909C118.584 7.45476 118.241 8.59285 118.323 10.3033C118.268 12.5391 118.117 14.189 117.869 15.253C117.621 16.317 117.25 17.179 116.755 17.8389C116.26 18.4989 115.668 18.977 114.98 19.2733C114.293 19.5696 113.625 19.7514 112.979 19.8188C112.346 19.8726 111.7 20.0006 111.039 20.2026C110.228 20.4989 109.767 20.8828 109.657 21.3542C109.56 21.8121 110.131 22.0411 111.369 22.0411C112.552 22.0545 113.639 21.9131 114.63 21.6168C115.634 21.307 116.459 20.8828 117.106 20.344C117.752 19.7918 118.282 19.2262 118.694 18.647C119.121 18.0679 119.465 17.3877 119.726 16.6065C119.988 15.8254 120.228 14.6469 120.448 13.0711C120.682 11.4818 120.778 9.805 120.737 8.04064ZM114.547 8.70733C114.63 8.19553 114.623 7.68373 114.526 7.17193C114.444 6.64666 114.093 6.63319 113.474 7.13152C112.855 7.61639 112.477 8.43796 112.339 9.59624C112.27 10.8084 112.243 11.9195 112.257 12.9297C112.284 13.9263 112.043 15.253 111.534 16.9096C111.479 17.6369 111.596 18.0746 111.885 18.2228C112.188 18.3574 112.504 18.1756 112.834 17.6773C113.11 17.2867 113.337 16.9029 113.515 16.5257C113.694 16.1486 113.859 15.684 114.011 15.1318C114.162 14.5661 114.265 13.4819 114.32 11.8791C114.389 10.2764 114.464 9.21913 114.547 8.70733Z" fill="white"/>
<path d="M141.908 11.2529C142.719 11.4279 143.214 11.9465 143.393 12.8085V13.7176C143.214 14.9297 142.479 15.9399 141.185 16.748C139.7 17.9871 138.73 18.8558 138.276 19.3541C139.5 19.9737 140.69 20.2902 141.846 20.3036V22.0815C141.144 22.0545 140.518 21.9737 139.968 21.839C139.418 21.7043 138.943 21.5629 138.544 21.4148C138.159 21.2532 137.657 21.0175 137.038 20.7077C136.474 21.1925 135.662 21.9804 134.603 23.0714C132.086 25.4957 130.827 28.2567 130.827 31.3545L130.848 32.5464C130.889 32.9909 131.047 33.5363 131.322 34.1828C131.584 34.9909 132.168 35.799 133.076 36.6071C134.177 37.3479 135.546 37.7856 137.182 37.9203C138.476 37.9203 139.947 37.3546 141.598 36.2233C143.001 35.2536 144.363 34.0683 145.684 32.6676L145.993 32.5868L146.365 32.6474L146.509 32.8495V33.2535C146.151 34.4387 145.051 35.8125 143.208 37.3748L141.598 38.6072C140.057 39.6443 138.145 40.1022 135.862 39.981C134.473 39.8732 133.303 39.5298 132.354 38.9506C130.071 37.3883 128.888 35.193 128.805 32.3646L128.784 31.8191C128.784 27.9672 130.903 23.9468 135.14 19.7582C134.383 18.748 133.943 18.0207 133.819 17.5763L133.757 17.1116C133.785 14.7546 135.435 12.9701 138.709 11.7579L139.824 11.3943L141 11.172L141.474 11.1518L141.908 11.2529ZM135.862 16.9096C135.862 17.4214 136.103 17.8995 136.584 18.344C136.79 18.3305 138.049 17.3002 140.36 15.253C141.213 14.4987 141.626 13.9331 141.598 13.556C141.626 13.0172 141.22 12.8152 140.381 12.9499C137.368 14.0273 135.862 15.3473 135.862 16.9096ZM138.524 30.6676C138.51 30.5194 138.503 30.378 138.503 30.2433C138.517 30.1221 138.551 29.9941 138.606 29.8595C138.675 29.7382 138.723 29.6103 138.751 29.4756C138.792 29.3544 138.792 29.2264 138.751 29.0918C138.709 28.9571 138.641 28.8426 138.544 28.7483C138.462 28.6675 138.331 28.58 138.152 28.4857C137.987 28.4049 137.795 28.3645 137.575 28.3645C137.368 28.3645 137.169 28.3981 136.976 28.4655C136.784 28.5328 136.612 28.6338 136.46 28.7685C136.323 28.9032 136.206 29.0716 136.109 29.2736C136.013 29.4756 135.944 29.6776 135.903 29.8797C135.876 30.0817 135.876 30.2703 135.903 30.4453C135.944 30.6339 136.027 30.8225 136.151 31.011C136.275 31.213 136.412 31.3612 136.563 31.4555C136.715 31.5632 136.914 31.6642 137.162 31.7585C137.423 31.8528 137.664 31.8865 137.884 31.8595C138.118 31.8461 138.283 31.8056 138.379 31.7383C138.489 31.671 138.572 31.5767 138.627 31.4555C138.696 31.3343 138.737 31.24 138.751 31.1726C138.764 31.1188 138.737 31.0582 138.668 30.9908C138.599 30.9235 138.551 30.8157 138.524 30.6676Z" fill="white"/>
<path d="M141.722 20.243C142.107 20.2296 142.472 20.1689 142.816 20.0612C143.159 19.9534 143.641 19.6504 144.26 19.1521C143.283 18.6537 142.761 18.0813 142.692 17.4349C142.637 16.7749 142.692 16.2227 142.857 15.7782C143.036 15.3338 143.366 14.8691 143.847 14.3843C144.342 13.8994 144.92 13.6906 145.58 13.758C146.255 13.8119 146.777 14.0341 147.149 14.4247C147.52 14.8018 147.775 15.4819 147.912 16.4651C147.898 17.354 147.72 18.2026 147.376 19.0107C147.032 19.8188 146.234 20.5393 144.982 21.1723C143.73 21.8054 142.65 22.1084 141.743 22.0815L141.722 20.243Z" fill="white"/>
<path d="M152.823 20.9097C153.167 20.5595 153.573 20.3575 154.04 20.3036C154.508 20.2363 155.031 20.2498 155.609 20.344V22.0815C154.838 22.0006 154.267 22.3441 153.896 23.1118C153.538 23.8795 153.036 24.8627 152.39 26.0614C151.743 27.2735 149.934 28.5665 146.963 29.9403C144.913 30.2635 144.652 29.7315 146.179 28.3443C147.362 27.3745 148.366 26.5799 149.191 25.9604C150.017 25.3543 150.684 24.4923 151.193 23.3744C151.702 22.27 152.245 21.4484 152.823 20.9097Z" fill="white"/>
<path d="M158.477 27.0715C158.408 26.9503 158.401 26.8156 158.456 26.6675C158.525 26.5193 158.587 26.3779 158.642 26.2432C158.711 26.122 158.759 25.994 158.786 25.8593C158.827 25.7381 158.827 25.6102 158.786 25.4755C158.745 25.3408 158.676 25.2263 158.58 25.1321C158.497 25.0512 158.367 24.9637 158.188 24.8694C158.023 24.7886 157.83 24.7482 157.61 24.7482C157.404 24.7482 157.204 24.7819 157.012 24.8492C156.819 24.9166 156.654 25.0176 156.516 25.1523C156.393 25.2869 156.276 25.4553 156.166 25.6573C156.056 25.8593 155.987 26.0614 155.959 26.2634C155.946 26.4789 155.946 26.6742 155.959 26.8493C155.987 27.0244 156.063 27.2062 156.186 27.3947C156.31 27.5968 156.448 27.7449 156.599 27.8392C156.75 27.9469 156.95 28.048 157.197 28.1422C157.459 28.2365 157.72 28.2904 157.981 28.3039C158.243 28.3308 158.422 28.3106 158.518 28.2433C158.628 28.1759 158.711 28.0816 158.766 27.9604C158.834 27.8392 158.855 27.7247 158.827 27.617C158.814 27.5227 158.772 27.4419 158.704 27.3745C158.635 27.3072 158.559 27.2062 158.477 27.0715ZM162.934 22.0815V20.2026C162.631 20.2296 162.287 20.1555 161.902 19.9804C161.517 19.8053 161.255 19.6167 161.118 19.4147C160.994 19.2127 160.884 18.9568 160.788 18.647C160.691 18.3238 160.636 17.9601 160.623 17.5561C160.623 17.152 160.547 16.8086 160.396 16.5257C160.258 16.2294 160.01 16.1015 159.653 16.1419C159.309 16.1688 159.048 16.3102 158.869 16.5661C158.704 16.822 158.559 17.152 158.435 17.5561C158.312 17.9601 158.181 18.344 158.043 18.7076C157.906 19.0713 157.596 19.4282 157.115 19.7784C156.647 20.1151 156.111 20.2632 155.505 20.2228V22.0815C156.51 21.9737 157.184 21.839 157.528 21.6774C157.885 21.5158 158.215 21.3138 158.518 21.0713C158.821 20.8154 159.048 20.5393 159.199 20.243C159.35 19.9332 159.488 19.9939 159.612 20.4248C159.749 20.8424 160.059 21.206 160.54 21.5158C161.022 21.8256 161.819 22.0141 162.934 22.0815Z" fill="white"/>
<path d="M162.81 20.243C163.195 20.2296 163.56 20.1689 163.903 20.0612C164.247 19.9534 164.729 19.6504 165.348 19.1521C164.371 18.6537 163.848 18.0813 163.78 17.4349C163.725 16.7749 163.78 16.2227 163.945 15.7782C164.124 15.3338 164.454 14.8691 164.935 14.3843C165.43 13.8994 166.008 13.6906 166.668 13.758C167.342 13.8119 167.865 14.0341 168.237 14.4247C168.608 14.8018 168.862 15.4819 169 16.4651C168.986 17.354 168.807 18.2026 168.464 19.0107C168.12 19.8188 167.322 20.5393 166.07 21.1723C164.818 21.8054 163.738 22.1084 162.83 22.0815L162.81 20.243Z" fill="white"/>
</svg>
