<svg width="45" height="70" viewBox="0 0 45 70" fill="none" xmlns="http://www.w3.org/2000/svg">
<path fill-rule="evenodd" clip-rule="evenodd" d="M22.4219 35C22.4219 28.5359 27.4413 23.2955 33.6328 23.2955C39.8243 23.2955 44.8438 28.5359 44.8438 35C44.8438 41.4641 39.8243 46.7046 33.6328 46.7046C27.4413 46.7046 22.4219 41.4641 22.4219 35Z" fill="#1ABCFE"/>
<path fill-rule="evenodd" clip-rule="evenodd" d="M0 58.3523C0 51.9195 5.0193 46.7045 11.2109 46.7045H22.4219V58.3523C22.4219 64.785 17.4025 70 11.2109 70C5.0193 70 0 64.785 0 58.3523Z" fill="#0ACF83"/>
<path fill-rule="evenodd" clip-rule="evenodd" d="M22.4219 0V23.2955L33.6328 23.2955C39.8243 23.2955 44.8438 18.0805 44.8438 11.6477C44.8438 5.21486 39.8243 0 33.6328 0H22.4219Z" fill="#FF7262"/>
<path fill-rule="evenodd" clip-rule="evenodd" d="M0 11.6477C0 18.0805 5.0193 23.2955 11.2109 23.2955H22.4219V0H11.2109C5.0193 0 0 5.21486 0 11.6477Z" fill="#F24E1E"/>
<path fill-rule="evenodd" clip-rule="evenodd" d="M0 35C0 41.4641 5.0193 46.7045 11.2109 46.7045H22.4219V23.2955H11.2109C5.0193 23.2955 0 28.5359 0 35Z" fill="#A259FF"/>
</svg>
