<svg width="70" height="70" viewBox="0 0 70 70" fill="none" xmlns="http://www.w3.org/2000/svg">
<path d="M0 25.3333C0 16.4658 0 12.0321 1.72572 8.64515C3.24373 5.66592 5.66592 3.24373 8.64515 1.72572C12.0321 0 16.4658 0 25.3333 0H44.6667C53.5342 0 57.968 0 61.3548 1.72572C64.334 3.24373 66.7562 5.66592 68.2742 8.64515C70 12.0321 70 16.4658 70 25.3333V44.6667C70 53.5342 70 57.968 68.2742 61.3548C66.7562 64.334 64.334 66.7562 61.3548 68.2742C57.968 70 53.5342 70 44.6667 70H25.3333C16.4658 70 12.0321 70 8.64515 68.2742C5.66592 66.7562 3.24373 64.334 1.72572 61.3548C0 57.968 0 53.5342 0 44.6667V25.3333Z" fill="#330000"/>
<path d="M33.9215 43.9908H23.0742L20.8672 51.0225C20.806 51.2838 20.5655 51.4688 20.3037 51.4558H14.8096C14.4963 51.4558 14.3867 51.2793 14.4809 50.926L23.8725 23.1845C23.9665 22.8955 24.0605 22.5665 24.1542 22.1973C24.2772 21.5545 24.34 20.9015 24.3422 20.2468C24.3152 20.0533 24.4852 19.8824 24.6707 19.9095H32.1372C32.356 19.9095 32.481 19.9898 32.5127 20.1503L43.1725 50.9743C43.2662 51.2955 43.1725 51.456 42.8907 51.4558H36.786C36.572 51.4803 36.3675 51.3335 36.3165 51.1188L33.9215 43.9908ZM24.7647 37.9223H32.1842C30.9652 33.7568 29.5895 29.646 28.4745 25.4483C27.2715 29.6533 25.959 33.8413 24.7647 37.9223Z" fill="#FF9A00"/>
<path d="M49.5113 25.0145C49.0323 25.0343 48.5548 24.95 48.1095 24.7675C47.6645 24.585 47.262 24.308 46.9285 23.955C46.596 23.5865 46.3375 23.1545 46.1683 22.6833C45.999 22.2123 45.9223 21.7115 45.9423 21.2098C45.9253 20.713 46.0105 20.2183 46.1925 19.7576C46.3748 19.297 46.6495 18.881 46.999 18.5367C47.345 18.196 47.7535 17.929 48.201 17.7513C48.6483 17.5736 49.1255 17.4886 49.605 17.5012C50.7323 17.5012 51.6165 17.8464 52.2583 18.5367C52.5823 18.8955 52.834 19.3162 52.9993 19.7749C53.1643 20.2335 53.2398 20.7213 53.2208 21.2098C53.2405 21.7133 53.1613 22.216 52.9878 22.6875C52.8145 23.159 52.5503 23.59 52.2113 23.955C51.857 24.3133 51.434 24.5923 50.9695 24.7748C50.5048 24.957 50.0083 25.0388 49.5113 25.0145ZM46.271 50.974V27.9525C46.271 27.6635 46.3958 27.519 46.6468 27.519H52.4228C52.6728 27.519 52.798 27.6635 52.7983 27.9525V50.974C52.7983 51.2955 52.673 51.456 52.4228 51.4558H46.6938C46.412 51.4558 46.271 51.2953 46.271 50.974Z" fill="#FF9A00"/>
</svg>
