<svg width="71" height="70" viewBox="0 0 71 70" fill="none" xmlns="http://www.w3.org/2000/svg">
<path d="M41.3791 0C40.8709 0 40.3991 0.108896 39.9635 0.254083C40.8891 0.871139 41.3972 1.68784 41.6513 2.61343C41.6695 2.74046 41.7058 2.83121 41.7239 2.95825C41.7421 3.06714 41.7602 3.17604 41.7602 3.28493C41.8328 4.88202 41.3428 5.08166 40.998 6.02539C40.4716 7.24137 40.6168 8.54808 41.252 9.60071C41.3065 9.72775 41.3791 9.87294 41.4698 9.99998C40.7802 5.40834 44.6096 4.71868 45.3174 3.28493C45.3718 2.03266 44.3373 1.19782 43.5206 0.617057C42.7402 0.145191 42.0324 0 41.3791 0ZM47.1504 1.03448C47.0778 1.4519 47.1322 1.34301 47.1141 1.5608C47.096 1.70598 47.096 1.88748 47.0779 2.03266C47.0416 2.17785 47.0052 2.32304 46.9508 2.46824C46.9145 2.61343 46.8601 2.75862 46.8056 2.9038C46.733 3.049 46.6786 3.17604 46.606 3.32123C46.5515 3.39385 46.5152 3.46641 46.4608 3.53901C46.4245 3.59346 46.3882 3.64791 46.3519 3.70235C46.2612 3.8294 46.1704 3.95643 46.0797 4.06533C45.9708 4.17422 45.88 4.30126 45.753 4.39201C45.753 4.41018 45.753 4.41018 45.753 4.41018C45.6441 4.50093 45.5352 4.60982 45.4082 4.70056C45.027 4.99094 44.5915 5.20872 44.1922 5.48096C44.0652 5.5717 43.9381 5.6443 43.8292 5.75319C43.7022 5.84393 43.5933 5.93467 43.4844 6.04357C43.3574 6.15246 43.2666 6.26136 43.1577 6.3884C43.067 6.49729 42.9581 6.62433 42.8855 6.75138C42.7947 6.87841 42.704 7.00546 42.6314 7.13249C42.5588 7.27768 42.5044 7.40473 42.4318 7.54992C42.3773 7.6951 42.3229 7.82215 42.2866 7.96734C42.2321 8.13068 42.1958 8.27587 42.1595 8.42106C42.1414 8.49369 42.1414 8.5844 42.1233 8.65699C42.1051 8.72962 42.1051 8.80218 42.087 8.87478C42.087 9.01997 42.0688 9.18331 42.0688 9.3285C42.0688 9.43739 42.0688 9.54628 42.087 9.65518C42.087 9.80037 42.1052 9.94555 42.1414 10.1089C42.1596 10.2541 42.1959 10.3993 42.2322 10.5445C42.2866 10.6897 42.3229 10.8348 42.3774 10.98C42.4137 11.0708 42.4681 11.1615 42.5044 11.2341L38.3302 9.61888C37.6224 9.41924 36.9328 9.23776 36.2249 9.07442C35.8438 8.98368 35.4627 8.89293 35.0816 8.80218C33.9926 8.5844 32.8856 8.42106 31.7785 8.31217C31.7422 8.31217 31.7241 8.294 31.6878 8.294C30.5988 8.18511 29.528 8.13066 28.4391 8.13066C27.6406 8.13066 26.842 8.16693 26.0616 8.2214C24.9545 8.29403 23.8475 8.43919 22.7404 8.62067C22.4682 8.65694 22.1959 8.71142 21.9237 8.76587C21.3611 8.87475 20.8166 9.0018 20.2903 9.12884C20.0181 9.20147 19.7458 9.27403 19.4736 9.34662C19.2014 9.45551 18.9473 9.58256 18.6932 9.69145C18.4936 9.7822 18.2939 9.87294 18.0943 9.96369C18.058 9.98186 18.0217 9.98186 18.0036 9.99996C17.8221 10.0907 17.6587 10.1633 17.4954 10.254C17.441 10.2722 17.4047 10.2903 17.3684 10.3085C17.1687 10.3992 16.9691 10.5081 16.8057 10.5989C16.6787 10.6533 16.5517 10.7259 16.4428 10.7804C16.3883 10.8166 16.3157 10.853 16.2794 10.8711C16.1161 10.9618 15.9527 11.0526 15.8076 11.1433C15.6442 11.2341 15.499 11.3248 15.372 11.4156C15.245 11.5063 15.1179 11.5789 15.009 11.6696C14.9908 11.6878 14.9727 11.6878 14.9546 11.7059C14.8457 11.7785 14.7186 11.8692 14.6097 11.96C14.6097 11.96 14.5916 11.9782 14.5735 11.9963C14.4827 12.0689 14.392 12.1415 14.3012 12.214C14.265 12.2322 14.2286 12.2685 14.1923 12.2867C14.1016 12.3593 14.0109 12.45 13.9201 12.5226C13.9019 12.5589 13.8657 12.5771 13.8475 12.5952C13.7386 12.7041 13.6297 12.7949 13.5208 12.9038C13.5026 12.9038 13.5026 12.9219 13.4845 12.94C13.3757 13.0308 13.2668 13.1397 13.1579 13.2486C13.1397 13.2667 13.1397 13.2848 13.1216 13.2848C13.0309 13.3756 12.9401 13.4663 12.8494 13.5752C12.8131 13.6115 12.7586 13.6478 12.7223 13.6841C12.6316 13.793 12.5227 13.9019 12.4138 14.0108C12.3956 14.047 12.3594 14.0652 12.3412 14.1015C12.196 14.2467 12.0689 14.3919 11.9238 14.5371C11.9056 14.5553 11.8875 14.5734 11.8693 14.5915C11.5789 14.9001 11.2704 15.2086 10.9437 15.4808C10.617 15.7712 10.2722 16.0434 9.92738 16.2794C9.56441 16.5335 9.21958 16.7512 8.83846 16.969C8.47548 17.1687 8.09435 17.3502 7.69508 17.5135C7.31396 17.6768 6.91469 17.822 6.51541 17.9491C5.75316 18.1124 4.97276 18.4209 4.30126 18.4754C4.15607 18.4754 3.99273 18.5116 3.84754 18.5298C3.6842 18.5661 3.53901 18.6024 3.39382 18.6387C3.24864 18.6932 3.10344 18.7476 2.95825 18.8021C2.81306 18.8565 2.66787 18.9291 2.52268 19.0017C2.39564 19.0924 2.25045 19.165 2.12341 19.2558C1.99637 19.3465 1.86932 19.4554 1.76043 19.5643C1.63339 19.6551 1.50635 19.7821 1.39745 19.891C1.28856 20.018 1.17967 20.1269 1.08893 20.254C0.998184 20.3991 0.88929 20.5262 0.816692 20.6714C0.72595 20.7984 0.635208 20.9436 0.56261 21.0888C0.489985 21.2521 0.417421 21.3973 0.362974 21.5607C0.308528 21.7059 0.254081 21.8692 0.199634 22.0325C0.163365 22.1777 0.12701 22.3229 0.108893 22.4681C0.108893 22.4863 0.0907159 22.5044 0.0907159 22.5225C0.0544464 22.6859 0.0544464 22.9037 0.036269 23.0126C0.0180923 23.1396 0 23.2485 0 23.3756C0 23.4482 0 23.5389 0.0181767 23.6115C0.0363534 23.7385 0.0544456 23.8474 0.0908008 23.9563C0.12707 24.0652 0.163425 24.1741 0.217837 24.283C0.217837 24.3012 0.217837 24.3012 0.217837 24.3012C0.272284 24.4101 0.344883 24.519 0.417473 24.6278C0.490097 24.7367 0.56267 24.8456 0.653411 24.9545C0.744153 25.0453 0.853047 25.1542 0.96194 25.2449C1.07083 25.3538 1.17973 25.4445 1.30676 25.5353C1.74234 25.9164 1.85123 26.0435 2.41384 26.3338C2.50458 26.3883 2.59533 26.4246 2.70423 26.479C2.72241 26.479 2.7405 26.4972 2.75867 26.4972C2.75867 26.5335 2.75867 26.5516 2.77685 26.5879C2.79503 26.7331 2.8313 26.8783 2.8676 27.0235C2.90386 27.1869 2.95835 27.332 3.01279 27.4591C3.06724 27.568 3.10353 27.6769 3.15798 27.7858C3.17616 27.822 3.19425 27.8584 3.21243 27.8765C3.28505 28.0217 3.35762 28.1488 3.43021 28.2758C3.52096 28.4028 3.6117 28.5299 3.70244 28.6569C3.79318 28.7658 3.90208 28.8928 4.01097 29.0017C4.11986 29.1106 4.22876 29.2014 4.3558 29.3103C4.3558 29.3103 4.37398 29.3285 4.39207 29.3285C4.50096 29.4192 4.60986 29.5099 4.71875 29.5825C4.84579 29.6733 4.97283 29.7459 5.11802 29.8185C5.24507 29.8911 5.39026 29.9637 5.53544 30.0181C5.64434 30.0726 5.77137 30.1089 5.89842 30.1452C5.9166 30.1634 5.93469 30.1634 5.97104 30.1814C6.04367 30.1996 6.13437 30.2177 6.20697 30.2359C6.15253 31.2159 6.13435 32.1415 6.2796 32.4682C6.44293 32.8311 7.24148 31.7241 8.04003 30.4537C7.93114 31.7059 7.85854 33.176 8.04003 33.6115C8.23966 34.0653 9.32859 32.6497 10.2723 31.0889C23.1398 28.1125 34.8821 37.0054 36.1162 49.5643C35.8803 47.6042 33.4665 46.5153 32.3594 46.7876C31.8149 48.1306 30.8893 49.8547 29.4011 50.9255C29.5282 49.7276 29.4738 48.4935 29.2197 47.2957C28.8204 48.9654 28.04 50.5262 26.9692 51.8692C25.2451 51.9963 23.5209 51.1614 22.6135 49.9091C22.5409 49.8547 22.5227 49.7458 22.4683 49.6732C22.4139 49.5462 22.3594 49.4191 22.3231 49.2921C22.2687 49.165 22.2324 49.038 22.2142 48.911C22.196 48.7839 22.196 48.6569 22.196 48.5117C22.196 48.4209 22.196 48.3302 22.196 48.2395C22.2142 48.1124 22.2505 47.9854 22.2868 47.8583C22.3231 47.7313 22.3594 47.6042 22.4138 47.4772C22.4865 47.3502 22.5409 47.2231 22.6316 47.0961C22.9401 46.2249 22.9401 45.5171 22.3775 45.0997C22.2686 45.0271 22.1597 44.9727 22.0327 44.9182C21.9601 44.9001 21.8694 44.8638 21.7968 44.8456C21.7423 44.8274 21.706 44.8093 21.6516 44.7912C21.5245 44.7549 21.3975 44.7185 21.2705 44.7004C21.1434 44.6641 21.0164 44.646 20.8893 44.646C20.7623 44.6278 20.6171 44.6097 20.4901 44.6097C20.3993 44.6097 20.3086 44.6279 20.2178 44.6279C20.0726 44.6279 19.9456 44.6461 19.8186 44.6823C19.6915 44.7005 19.5645 44.7186 19.4374 44.7549C19.3104 44.7912 19.1833 44.8276 19.0563 44.882C18.9293 44.9364 18.8204 44.9909 18.6933 45.0453C18.5844 45.0998 18.4755 45.1724 18.3485 45.2268C14.1198 47.9854 16.6425 54.4464 19.5282 56.3157C18.4392 56.5153 17.3322 56.7513 17.0236 56.9872C17.0055 57.0054 16.9874 57.0235 16.9874 57.0235C17.7678 57.4953 18.5845 57.8946 19.4375 58.2394C20.599 58.6206 21.8331 58.9654 22.3776 59.1106V59.1288C23.8839 59.4373 25.4084 59.5462 26.9511 59.4555C34.991 58.8928 41.579 52.7767 42.7768 44.7186C42.8131 44.882 42.8494 45.0272 42.8857 45.1905C42.9401 45.5172 43.0127 45.862 43.049 46.2068C43.049 46.2068 43.049 46.2068 43.049 46.225C43.0853 46.3884 43.1035 46.5517 43.1216 46.6969C43.1216 46.7332 43.1216 46.7513 43.1216 46.7695C43.1398 46.9329 43.1579 47.0962 43.1579 47.2414C43.1761 47.441 43.1942 47.6407 43.1942 47.8403C43.1942 47.931 43.1942 48.0218 43.1942 48.1307C43.1942 48.2214 43.2124 48.3303 43.2124 48.4211C43.2124 48.53 43.1942 48.6388 43.1942 48.7477C43.1942 48.8385 43.1942 48.9292 43.1942 49.0018C43.1942 49.1289 43.176 49.2378 43.176 49.3648C43.176 49.4374 43.176 49.51 43.1578 49.6007C43.1578 49.7278 43.1396 49.8548 43.1396 50C43.1214 50.0545 43.1214 50.1089 43.1214 50.1633C43.1033 50.3085 43.0852 50.4356 43.067 50.5808C43.067 50.6352 43.067 50.6897 43.0488 50.7441C43.0306 50.9256 42.9944 51.0889 42.9762 51.2704V51.2886V51.3068C42.9399 51.4701 42.9036 51.6516 42.8673 51.815C42.8673 51.8331 42.8673 51.8512 42.8673 51.8694C42.831 52.0327 42.7947 52.1961 42.7584 52.3594C42.7584 52.3776 42.7402 52.4139 42.7402 52.432C42.704 52.5954 42.6676 52.7587 42.6132 52.9221C42.6132 52.9402 42.6132 52.9583 42.6132 52.9765C42.5588 53.158 42.5043 53.3213 42.468 53.4847C42.4498 53.5028 42.4498 53.5209 42.4498 53.5209C42.3954 53.7024 42.341 53.8839 42.2865 54.0654C42.2139 54.2469 42.1595 54.4102 42.0869 54.5917C42.0143 54.7732 41.9598 54.9547 41.8872 55.118C41.8146 55.2995 41.742 55.4629 41.6695 55.6443H41.6513C41.5786 55.8077 41.5061 55.9892 41.4153 56.1525C41.3971 56.207 41.379 56.2433 41.3609 56.2796C41.3427 56.2978 41.3427 56.3158 41.3246 56.334C40.1449 58.7115 38.4026 60.7986 36.2248 62.432C36.0796 62.5227 35.9344 62.6316 35.7892 62.7405C35.753 62.7768 35.6985 62.795 35.6622 62.8313C35.5351 62.922 35.4081 63.0127 35.2629 63.1035L35.3174 63.2124H35.3355C35.5896 63.1761 35.8437 63.1398 36.0978 63.1035H36.1159C36.5878 63.0309 37.0597 62.9402 37.5316 62.8494C37.6586 62.8312 37.8038 62.795 37.9308 62.7587C38.0216 62.7405 38.0942 62.7224 38.1849 62.7042C38.312 62.686 38.439 62.6498 38.566 62.6316C38.6749 62.5953 38.7838 62.5771 38.8927 62.5409C40.7076 62.1053 42.468 61.5064 44.1558 60.7986C41.2702 64.7368 37.4045 67.9129 32.8855 70C34.9726 69.8548 37.0597 69.51 39.0742 68.9292C46.3882 66.7695 52.5406 61.8512 56.2248 55.2269C55.4807 59.4193 53.811 63.412 51.3428 66.8966C53.1032 65.735 54.7184 64.392 56.1885 62.8675C60.2538 58.6207 62.9217 53.2305 63.8291 47.4411C64.4462 50.3086 64.6277 53.2668 64.3555 56.1888C77.4589 37.913 65.4444 18.9656 60.4172 13.9747C60.399 13.9384 60.3809 13.9203 60.3809 13.884C60.3627 13.9021 60.3627 13.9021 60.3627 13.9202C60.3627 13.9021 60.3627 13.9021 60.3445 13.884C60.3445 14.1018 60.3264 14.3195 60.3083 14.5373C60.2538 14.9548 60.1994 15.354 60.1268 15.7533C60.036 16.1526 59.9271 16.5518 59.8182 16.9511C59.6912 17.3322 59.546 17.7315 59.3827 18.1126C59.2193 18.4756 59.0378 18.8567 58.8382 19.2197C58.6386 19.5645 58.4208 19.9275 58.1849 20.2542C57.9489 20.599 57.6948 20.9257 57.4407 21.2342C57.1685 21.5609 56.8781 21.8513 56.5878 22.1417C56.4063 22.305 56.2429 22.4502 56.0614 22.5954C55.9162 22.7224 55.7892 22.8313 55.644 22.9584C55.3173 23.2124 54.9907 23.4484 54.6277 23.6662C54.2829 23.8839 53.9199 24.1017 53.5569 24.2832C53.1758 24.4647 52.7947 24.628 52.4135 24.7914C52.0324 24.9366 51.6331 25.0636 51.2339 25.1725C50.8346 25.2814 50.4172 25.3722 50.0179 25.4447C49.6005 25.5174 49.1831 25.5536 48.7838 25.5899C48.4934 25.6081 48.203 25.6262 47.9126 25.6262C47.4952 25.6262 47.0778 25.5899 46.6785 25.5536C46.2611 25.5173 45.8437 25.4628 45.4444 25.3721C45.027 25.2995 44.6277 25.1906 44.2284 25.0636H44.2103C44.6095 25.0273 45.0088 24.9909 45.4081 24.9184C45.8255 24.8457 46.2248 24.755 46.6241 24.6461C47.0233 24.5372 47.4226 24.4102 47.8037 24.265C48.203 24.1198 48.5841 23.9383 48.9471 23.7568C49.3282 23.5754 49.673 23.3757 50.036 23.1579C50.3808 22.922 50.7257 22.6861 51.0524 22.432C51.379 22.1779 51.6876 21.9057 51.9779 21.6153C52.2865 21.3431 52.5587 21.0345 52.8309 20.726C53.1032 20.3993 53.3573 20.0726 53.5932 19.746C53.6295 19.6915 53.6658 19.6189 53.7021 19.5645C53.8836 19.2741 54.065 18.9837 54.2284 18.6933C54.428 18.3304 54.6095 17.9674 54.7729 17.5863C54.9362 17.2051 55.0814 16.824 55.2084 16.4247C55.3355 16.0436 55.4262 15.6443 55.517 15.2451C55.5896 14.8277 55.6621 14.4284 55.6984 14.0291C55.7347 13.6117 55.7711 13.1943 55.7711 12.795C55.7711 12.5046 55.7529 12.2142 55.7348 11.9239C55.6985 11.5064 55.6441 11.1072 55.5896 10.7079C55.517 10.2905 55.4263 9.89119 55.3174 9.49191C55.1903 9.11079 55.0633 8.71151 54.9181 8.33039C54.7729 7.94927 54.5914 7.56814 54.4099 7.20516C54.2103 6.84219 54.0107 6.47921 53.7929 6.13439C53.5569 5.78957 53.321 5.46289 53.0669 5.1362C52.7947 4.82767 52.5225 4.51915 52.2321 4.21062C52.0869 4.06543 51.9235 3.90209 51.7602 3.7569C50.9435 3.12169 50.0905 2.52278 49.2375 1.97832C49.1105 1.9057 49.0016 1.85128 48.8746 1.79683C48.2756 1.41571 47.713 1.21606 47.1504 1.03458L47.1504 1.03448Z" fill="#E0234E"/>
</svg>
