<svg width="82" height="70" viewBox="0 0 82 70" fill="none" xmlns="http://www.w3.org/2000/svg">
<path d="M48 34.9999C48 31.1342 44.8662 28 41 28C37.1343 28 34 31.1342 34 34.9999C34 38.866 37.1343 42 41 42C44.8662 42 48 38.866 48 34.9999Z" fill="#53C1DE"/>
<path fill-rule="evenodd" clip-rule="evenodd" d="M64.7811 21.9523C66.3273 15.9513 68.271 4.82321 61.4191 1.05043C54.5992 -2.70591 45.7243 4.49192 41.038 8.8124C36.3654 4.53497 27.2412 -2.63208 20.3951 1.15268C13.5779 4.92162 15.6801 15.8652 17.2607 21.9038C10.9014 23.6288 0 27.3441 0 34.9351C0 42.5045 10.89 46.5468 17.2117 48.2701C15.6253 54.3421 13.6283 65.1293 20.4543 68.89C27.326 72.674 36.4217 65.6775 41.1514 61.3098C45.8678 65.6557 54.6574 72.698 61.4787 68.9268C68.3213 65.1439 66.5392 54.1649 64.9585 48.0913C71.0866 46.3642 82 42.41 82 34.9351C82 27.4171 71.0402 23.6716 64.7811 21.9523ZM64.0043 44.8727C62.9664 41.7351 61.5656 38.3985 59.8521 34.9518C61.4877 31.5864 62.8341 28.2929 63.843 25.1755C68.4315 26.446 78.4972 29.3496 78.4972 34.9351C78.4972 40.5731 68.8379 43.5042 64.0043 44.8727ZM59.7233 66.0315C54.6339 68.845 47.0737 62.1105 43.5907 58.9101C45.9014 56.4965 48.2105 53.6905 50.4642 50.5747C54.4286 50.239 58.1735 49.6898 61.57 48.94C62.6824 53.2361 64.8352 63.2054 59.7233 66.0315ZM22.2046 65.9914C17.1146 63.1885 19.4411 53.5624 20.6082 49.0896C23.9668 49.7993 27.6848 50.3098 31.6586 50.6175C33.927 53.6663 36.303 56.4687 38.6974 58.923C35.7392 61.656 27.3183 68.8073 22.2046 65.9914ZM3.50274 34.9351C3.50274 29.2761 13.5083 26.3935 18.2014 25.1262C19.2277 28.3137 20.5737 31.6465 22.198 35.0167C20.5526 38.437 19.1874 41.8226 18.1517 45.0477C13.6768 43.8243 3.50274 40.5976 3.50274 34.9351ZM22.1501 4.04799C27.2609 1.22274 35.1908 8.10338 38.5835 11.2003C36.2014 13.6434 33.8471 16.4247 31.5982 19.456C27.7417 19.7973 24.0499 20.3455 20.656 21.08C19.3827 16.2096 17.0448 6.8702 22.1501 4.04799ZM52.9701 23.0922C55.5864 23.4075 58.0932 23.8269 60.4468 24.3401C59.7403 26.5031 58.8596 28.7649 57.8223 31.0835C56.3187 28.3589 54.7047 25.6889 52.9701 23.0922ZM41.0391 13.591C42.6548 15.2626 44.2729 17.1293 45.8648 19.1544C42.6359 19.0085 39.4018 19.008 36.1729 19.1523C37.7662 17.1459 39.3983 15.282 41.0391 13.591ZM24.2078 31.0811C23.1877 28.7705 22.3149 26.4988 21.6021 24.3048C23.9418 23.8048 26.4368 23.3962 29.0362 23.086C27.2967 25.6771 25.6854 28.346 24.2078 31.0811ZM29.1108 47.023C26.4256 46.7368 23.8928 46.3489 21.5539 45.8627C22.2779 43.6302 23.1699 41.3094 24.2118 38.9491C25.7097 41.7127 27.3456 44.4075 29.1108 47.023ZM41.1361 56.5156C39.4759 54.8046 37.8198 52.9122 36.2025 50.8768C39.4497 50.9985 42.7031 50.9988 45.9501 50.8604C44.3533 52.9329 42.7409 54.828 41.1361 56.5156ZM57.8556 38.829C58.9517 41.2149 59.8756 43.523 60.6095 45.7178C58.2318 46.2361 55.6649 46.6534 52.9602 46.9633C54.7077 44.3173 56.3474 41.6058 57.8556 38.829ZM48.5093 47.3687C43.5423 47.7077 38.5444 47.7039 33.5757 47.3965C30.7525 43.4579 28.2392 39.3158 26.0697 35.0156C28.2288 30.7243 30.7238 26.5903 33.5336 22.6579C38.5058 22.299 43.5087 22.298 48.4809 22.6601C51.2667 26.5922 53.7578 30.7155 55.9669 34.968C53.7841 39.2571 51.276 43.3995 48.5093 47.3687ZM59.6695 3.94854C64.7816 6.76453 62.5061 16.7657 61.3893 21.1147C57.9874 20.3649 54.293 19.807 50.4254 19.4603C48.172 16.3963 45.8375 13.6101 43.4939 11.1986C46.93 8.03495 54.6068 1.16009 59.6695 3.94854Z" fill="#53C1DE"/>
</svg>
