<svg width="70" height="70" viewBox="0 0 70 70" fill="none" xmlns="http://www.w3.org/2000/svg">
<rect width="70" height="70" rx="4" fill="#F9F4ED"/>
<path d="M21.3395 59.8311C20.9211 59.8311 20.5216 59.7 20.1412 59.4378C19.7608 59.213 19.6087 58.8945 19.6847 58.4824C20.2554 55.4853 20.7309 52.4507 21.1113 49.3787C21.5297 46.2692 21.739 43.1409 21.739 39.994C21.739 37.2216 21.6439 34.7115 21.4537 32.4637C21.2635 30.2159 20.6548 28.0617 19.6277 26.0012C19.4375 25.5891 19.2853 25.2332 19.1712 24.9334C19.057 24.6337 19 24.3527 19 24.0905C19 23.3787 19.4184 22.6856 20.2554 22.0112C21.0923 21.3369 21.9862 20.9997 22.9373 20.9997C24.3068 20.9997 25.2388 21.8239 25.7333 23.4723C26.2279 25.1208 26.4751 27.5559 26.4751 30.7778C26.4751 34.6366 26.2469 38.0084 25.7904 40.8931C25.3339 43.7404 24.9344 45.9133 24.5921 47.4118L24.8203 47.5242C25.5812 45.6885 26.5512 43.9277 27.7305 42.2418C28.9098 40.5185 30.2602 39.0948 31.7819 37.9709C33.3416 36.847 35.0344 36.285 36.8604 36.285C38.6484 36.285 40.0178 36.8095 40.9689 37.8585C41.9579 38.9075 42.4525 40.1625 42.4525 41.6236C42.4525 43.347 41.8248 44.883 40.5694 46.2317C39.3141 47.5804 37.6783 48.7043 35.6621 49.6035C36.1566 50.8772 36.8604 51.8888 37.7734 52.638C38.6864 53.3499 39.8467 53.7058 41.2542 53.7058C41.7107 53.7058 42.0911 53.6683 42.3954 53.5934C42.89 53.481 43.1372 53.9493 43.1372 54.9983C43.1372 55.5977 43.0231 56.2721 42.7949 57.0213C42.5666 57.7706 42.1101 58.4262 41.4254 58.9882C40.7787 59.5127 39.7896 59.7749 38.4581 59.7749C36.6702 59.7749 35.2056 59.2692 34.0644 58.2576C32.9612 57.2087 32.0862 55.9349 31.4395 54.4363C30.8309 52.9003 30.3553 51.383 30.013 49.8844C29.7086 48.4983 30.1842 47.7677 31.4395 47.6928C32.771 47.5429 33.8932 47.1496 34.8062 46.5127C35.7192 45.8758 36.1757 45.0329 36.1757 43.9839C36.1757 42.785 35.586 42.1856 34.4068 42.1856C33.6459 42.1856 32.8661 42.4666 32.0672 43.0285C31.3064 43.553 30.5836 44.1899 29.8988 44.9392C29.2521 45.6885 28.7196 46.419 28.3011 47.1308C27.7305 48.1049 27.2359 49.0602 26.8175 49.9968C26.399 50.9334 26.0567 51.87 25.7904 52.8066V55.0545C25.7904 56.4406 25.3719 57.5833 24.535 58.4824C23.7361 59.3816 22.671 59.8311 21.3395 59.8311Z" fill="#444444"/>
<path d="M39.257 34.7147C36.6322 34.7147 34.5209 34.0216 32.9231 32.6354C31.3634 31.2118 30.5836 29.1326 30.5836 26.3977C30.5836 25.1239 30.7548 23.8876 31.0972 22.6888C31.4776 21.4899 31.9721 20.366 32.5808 19.317C31.9721 19.6916 31.5156 19.879 31.2113 19.879C30.7548 19.879 30.4314 19.6354 30.2412 19.1484C30.089 18.6239 30.013 18.1182 30.013 17.6311C30.013 16.7695 30.1842 16.0951 30.5265 15.6081C30.9069 15.0836 31.2683 14.6902 31.6107 14.428C32.4096 13.7536 33.6649 13.0231 35.3768 12.2363C37.0887 11.4121 39.1429 11 41.5395 11C44.8111 11 47.3408 11.8991 49.1288 13.6974C50.9547 15.4957 51.8677 18.0058 51.8677 21.2277C51.8677 23.7378 51.3352 26.0231 50.27 28.0836C49.2048 30.1066 47.7212 31.7176 45.8192 32.9164C43.9551 34.1153 41.7678 34.7147 39.257 34.7147ZM41.0259 28.9827C42.928 28.9827 44.5257 28.402 45.8192 27.2406C47.1506 26.0418 47.8163 24.4683 47.8163 22.5202C47.8163 20.4971 47.1506 19.0548 45.8192 18.1931C44.4877 17.3314 42.947 16.9006 41.1971 16.9006C40.3983 16.9006 39.6755 16.9755 39.0288 17.1254C38.3821 17.2752 37.7734 17.4625 37.2028 17.6873C36.6702 18.4366 36.1947 19.2795 35.7762 20.2161C35.3578 21.1527 35.1486 22.183 35.1486 23.3069C35.1486 25.1801 35.7192 26.6037 36.8604 27.5778C38.0017 28.5144 39.3902 28.9827 41.0259 28.9827Z" fill="#444444"/>
</svg>
