<svg class="NavBar_Logo__3ZwNE" width="127" height="42" viewBox="0 0 127 42" fill="none" xmlns="http://www.w3.org/2000/svg"><path d="M106.687 34.126c-5.276.765-9.355-1.402-8.466-7.69l3.194-22.6h4.637l-1.149 8.071h4.213l-.638 4.671h-4.211l-1.405 9.814c-.467 3.483 1.83 3.695 4.382 3.695l-.557 4.04zM97.09 16.571l.65-4.663h-4.638l-.65 4.66 4.638.003zM91.943 20.217l-1.224 8.769c-2.637 1.699-8.295 1.317-7.997-2.294l2.084-14.785H80.13L78.08 26.65c-.935 6.457 6.382 9.091 12.167 6.84-.337 5.608-8.209 5.228-10.377 1.742l-3.19 2.678c3.106 6.16 16.591 5.778 17.995-3.993l1.906-13.698-4.64-.001zM119.049 29.621l2.813 2.808a11.484 11.484 0 0 0 2.546-2.335l-2.977-2.21a5.771 5.771 0 0 1-2.382 1.737z" fill="#06C67E"></path><path fill-rule="evenodd" clip-rule="evenodd" d="M109.6 19.34c.723-5.223 5.403-7.815 9.784-7.815 4.382 0 8.254 2.592 7.528 7.69-.851 6.164-8.636 8.41-13.571 6.074l-.171 1.317c-.351 2.356 1.636 3.558 3.885 3.45l3.04 3.34a10.076 10.076 0 0 1-3.989.858c-4.254 0-8.249-2.592-7.53-7.648l1.024-7.265zm8.21 2.93c2.128 0 4.212-.888 4.51-3.055.297-2.209-1.575-3.356-3.573-3.36-2.086 0-4.254 1.189-4.553 3.44l-.298 2.209c1.107.34 2.595.765 3.914.765zM77.302 12.12c.766-5.565-2.978-8.326-7.998-8.326H57.562l-3.554 25.422h4.948l-.761 4.698h6.857c5.913 0 10.72-2.336 11.784-8.964.426-3.017-.043-5.735-3.106-7.137 2.126-1.275 3.272-3.654 3.572-5.693zm-5.36 12.66c-.468 3.27-2.978 4.503-6.207 4.418h-6.814l1.276-8.963h6.806c3.408-.044 5.411 1.273 4.939 4.545zm-4.34-8.97c2.468 0 4.468-1.101 4.85-3.862.34-2.292-1.446-3.397-3.829-3.397h-6.806l-1.02 7.26h6.805z" fill="#06C67E"></path><path d="M8.913 18.542c-.042 0 .619 5.48.619 5.48h.412l2.02-5.563L21.084 0h5.038L11.514 29.173H6.477L0 0h5.075l3.838 18.542z" fill="#fff"></path><path fill-rule="evenodd" clip-rule="evenodd" d="M36.78 14.751c.7-4.904-3.22-7.335-7.346-7.376-4.208.041-8.788 2.472-9.49 7.376l-1.072 7.456c-.702 4.986 3.218 7.335 7.427 7.376 4.126-.041 8.706-2.39 9.407-7.376l1.073-7.456zm-13.366 7.456l1.073-7.456h-.004c.289-2.02 2.434-2.967 4.338-2.964 1.775 0 3.713.945 3.424 2.964l-1.072 7.456c-.247 2.02-2.475 3.173-4.25 3.173-1.9 0-3.757-1.153-3.508-3.173z" fill="#fff"></path><path fill-rule="evenodd" clip-rule="evenodd" d="M55.041 7.735l-.006.137h-.006l-8.455 10.67c.788 1.447 1.61 3.09 2.438 4.746 1.035 2.07 2.082 4.164 3.09 5.926H46.86l-3.509-7.128c-.221.28-.443.572-.737.961-.747.986-1.962 2.591-4.833 6.167h-5.277l8.747-10.672c-.84-1.543-1.793-3.308-2.747-5.076-1.058-1.962-2.118-3.927-3.03-5.596h5.281l3.59 7.17c1.35-1.677 2.742-3.527 4.052-5.268.488-.648.964-1.281 1.422-1.884h-2.63l-1.906.006.57-4.07h9.638c-.15 1.259-.334 2.866-.45 3.911zm.014.07a4.15 4.15 0 0 1 .011-.067l-.01.067z" fill="#fff"></path></svg>